<?xml version="1.0" encoding="UTF-8" standalone="no"?>
<!DOCTYPE svg PUBLIC "-//W3C//DTD SVG 1.1//EN" "http://www.w3.org/Graphics/SVG/1.1/DTD/svg11.dtd">
<svg width="100%" height="100%" viewBox="0 0 294 392" version="1.1" xmlns="http://www.w3.org/2000/svg" xmlns:xlink="http://www.w3.org/1999/xlink" xml:space="preserve" xmlns:serif="http://www.serif.com/" style="fill-rule:evenodd;clip-rule:evenodd;stroke-linecap:round;stroke-linejoin:round;stroke-miterlimit:1.5;">
    <g transform="matrix(1,0,0,1,-1185.81,-620.694)">
        <g id="Layer36">
            <g transform="matrix(0.993189,-0.206396,0.163443,0.786496,-154.065,482.175)">
                <path d="M1299.42,1010.96C1299.42,1010.96 1343.19,1001.54 1334.3,986.998C1325.41,972.455 1300.18,961.618 1300.18,961.618L1272.93,989.797" style="fill:rgb(226,221,211);"/>
            </g>
            <path d="M1416.02,990.546L1405.82,999.03" style="fill:none;"/>
        </g>
        <g id="Layer37">
            <path d="M1388.4,1010.96C1388.4,1010.96 1427.25,989.123 1421.38,982.318C1415.51,975.514 1353.17,970.132 1353.17,970.132" style="fill:rgb(226,221,211);"/>
        </g>
        <g>
            <g>
                <g transform="matrix(1.0963,0,0,2.01307,-129.496,-896.791)">
                    <g id="Layer33">
                        <path d="M1388.59,888.668L1383.87,882.978L1372.09,883.672L1334,884.046L1327.74,888.668" style="fill:rgb(66,49,37);stroke:rgb(66,48,37);stroke-width:1.23px;"/>
                    </g>
                </g>
                <g id="Layer34">
                    <g transform="matrix(1.03995,0,0,1,-56.0399,0)">
                        <path d="M1402.88,887.864L1389.29,878.614L1372.09,878.614L1372.09,882.978L1384.41,882.978L1389.81,887.811L1402.88,887.864Z" style="fill:rgb(149,74,74);"/>
                    </g>
                    <g transform="matrix(-0.974887,-0.222698,0.222698,-0.974887,2533.05,2054.44)">
                        <path d="M1388.59,882.978L1376.13,885.823" style="fill:none;"/>
                    </g>
                </g>
                <g transform="matrix(0.988045,0,0,1,16.1284,0)">
                    <g id="Layer35">
                        <path d="M1315.42,888.668L1327.74,878.614L1346.92,878.614L1349.14,883.239L1333.18,883.239L1327.74,888.668" style="fill:rgb(149,74,74);"/>
                    </g>
                </g>
                <g id="Leaf3">
                    <g transform="matrix(1.09598,0,0,1.01134,-127.605,-8.27936)">
                        <g id="Layer15">
                            <path d="M1325.44,764.192C1330.6,783.324 1346.14,835.435 1348.54,874.002L1352.52,882.661L1352.52,858.14C1346.21,827.575 1335.47,791.23 1326.42,756.848C1326.42,756.848 1324.57,760.934 1325.44,764.192Z" style="fill:rgb(63,107,82);"/>
                        </g>
                    </g>
                    <g>
                        <g transform="matrix(1,0,0,1,0.63876,0.233277)">
                            <g id="Layer13">
                                <path d="M1269.86,620.694C1279.59,619.271 1293.82,623.115 1319.78,667.819C1345.73,712.523 1319.78,708.289 1319.78,708.289L1299.33,692.31C1299.33,692.31 1260.12,622.117 1269.86,620.694Z" style="fill:rgb(63,107,82);"/>
                            </g>
                        </g>
                        <g id="Layer27">
                            <path d="M1268.94,629.619C1258.3,606.755 1327.2,752.066 1326.11,763.926C1325.62,769.214 1284.59,674.663 1268.94,637.566C1265.56,629.536 1269.57,630.97 1268.94,629.619Z" style="fill:none;stroke:rgb(63,107,82);stroke-width:2px;"/>
                        </g>
                        <g transform="matrix(1,0,0,1.00149,0,-0.923436)">
                            <g id="Layer12">
                                <path d="M1265.29,624.287C1261.97,628.087 1326.12,763.926 1326.12,763.926C1326.12,763.926 1321.87,696.587 1319.78,695.674C1317.69,694.761 1308.81,685.349 1308.81,685.349L1301.58,689.565L1308.89,676.15C1308.89,676.15 1302.39,658.046 1293.67,642.526C1285,627.066 1274.12,614.17 1265.29,624.287Z" style="fill:rgb(111,175,122);"/>
                            </g>
                        </g>
                    </g>
                </g>
                <g id="Leaf6">
                    <g id="Layer24">
                        <path d="M1388.59,856.687L1364.91,893.122L1355.59,892.901L1385.4,852.696L1388.59,856.687Z" style="fill:rgb(63,107,82);"/>
                    </g>
                    <g transform="matrix(1,0,0,1,2.82261,0.389289)">
                        <g id="Layer23">
                            <path d="M1463.74,823.171C1463.74,823.171 1469.75,826.304 1471.35,829.09C1475.63,836.574 1471.53,848.43 1471.53,848.43C1471.53,848.43 1470.43,842.773 1465.03,840.548C1458.41,837.821 1443.37,835.51 1441.15,835.363C1429.69,834.606 1463.74,823.171 1463.74,823.171Z" style="fill:rgb(63,107,82);"/>
                        </g>
                    </g>
                    <g transform="matrix(1.04393,0.0182816,-0.0182816,1.04393,-47.1452,-63.0219)">
                        <g id="Layer22">
                            <path d="M1406.36,822.505C1421.95,813.845 1472.59,820.874 1464.07,825.563C1460.99,827.264 1439.65,835.909 1427.84,844.259C1418.5,850.864 1419.45,856.222 1409.87,865.241C1407.46,867.508 1385.45,863.68 1383.19,855.802C1379.59,843.287 1387.27,833.105 1406.36,822.505Z" style="fill:rgb(111,175,122);"/>
                        </g>
                    </g>
                </g>
                <g id="Leaf2">
                    <g id="Layer26">
                        <path d="M1254.05,699.289C1264.7,731.885 1299.45,784.911 1302.83,791.658" style="fill:rgb(111,175,122);stroke:rgb(63,107,82);stroke-width:4px;"/>
                    </g>
                    <g id="Layer10">
                        <path d="M1252.05,692.496C1254.27,707.385 1297.17,783.078 1298.43,786.042C1299.68,789.007 1320.45,807.941 1324.58,804.934C1328.7,801.927 1323.2,768 1323.2,768L1306.71,771.353C1306.71,771.353 1299.05,773.269 1319.18,763.607C1330.06,758.382 1286.46,698.168 1286.46,698.168L1274.36,708.094C1274.36,708.094 1284.11,696.595 1280.38,693.996C1276.67,691.396 1249.72,676.844 1252.05,692.496Z" style="fill:rgb(111,175,122);"/>
                    </g>
                </g>
                <g id="Leaf1">
                    <g id="Layer25">
                        <path d="M1231.9,791.658C1248.06,793.008 1325.18,825.79 1354.73,892.162" style="fill:none;stroke:rgb(63,107,82);stroke-width:4px;"/>
                    </g>
                    <g transform="matrix(1,0,0,1,2.60106,0.502428)">
                        <g id="Layer9">
                            <path d="M1228.75,790.566C1322.93,817.039 1350.29,891.042 1350.29,891.042L1358.09,891.042L1340.73,857.643C1340.73,857.643 1338.52,849.009 1348.09,847.976C1354.4,847.294 1334.31,819.278 1334.31,819.278L1324.31,826.218L1332.94,816.16C1332.94,816.16 1318.5,789.026 1283.07,776.992C1279.26,775.698 1271.67,784.564 1271.67,784.564C1271.67,784.564 1280.32,773.159 1276.11,772.963C1266.13,772.5 1262.58,769.733 1249.29,772.724C1240.58,774.683 1217.08,787.283 1228.75,790.566Z" style="fill:rgb(111,175,122);"/>
                        </g>
                    </g>
                </g>
                <g id="Leaf4">
                    <g id="Layer14">
                        <g id="Layer18">
                            <path d="M1386.09,692.487C1421.35,693.244 1403.44,772.927 1386.09,801.204C1383.25,805.826 1369.9,799.614 1369.9,799.614C1369.9,799.614 1388.16,802.661 1386.09,807.154C1375.69,829.685 1360.62,825.199 1360.62,825.199C1360.62,825.199 1359.27,743.496 1360.62,721.014C1361.83,701.058 1383.69,692.436 1386.09,692.487Z" style="fill:rgb(63,107,82);"/>
                        </g>
                        <path d="M1354.5,805.257C1354.5,805.257 1352.9,870.768 1352.54,875.941C1352.17,881.115 1358.09,891.042 1358.09,891.042L1361.18,871.901L1361.46,805.257L1354.5,805.257Z" style="fill:rgb(63,107,82);"/>
                    </g>
                </g>
                <g id="Leaf5">
                    <g id="Layer11">
                        <path d="M1334.66,642.189C1315.24,646.16 1320.1,676.054 1320.89,693.861C1322.19,722.987 1326.12,764.139 1326.12,764.139C1326.12,764.139 1340.21,759.772 1340.68,760.416C1341.15,761.059 1327.54,763.796 1328.94,768C1334.83,785.596 1354.73,805.82 1354.73,805.82L1361.46,806.002C1361.46,806.002 1373.25,788.485 1375.84,778.853C1378.91,767.401 1376.59,742.028 1373.95,721.857C1371.87,705.914 1369.57,693.221 1369.57,693.221L1358.09,694.55L1367.36,685.349C1367.36,685.349 1358.01,637.415 1334.66,642.189Z" style="fill:rgb(111,175,122);"/>
                    </g>
                    <g transform="matrix(1,0,0,1,-0.843819,0.121462)">
                        <g id="Layer16">
                            <path d="M1337.31,641.855C1337.66,644.814 1356.42,792.851 1355.34,805.135C1355.06,808.254 1362.56,808.204 1362.31,805.881C1359.3,778.667 1336.69,636.574 1337.31,641.855Z" style="fill:rgb(63,107,82);"/>
                        </g>
                    </g>
                </g>
                <g id="Layer17">
                    <g transform="matrix(0.970853,0,0,1.02198,40.0179,-17.5891)">
                        <g id="Layer21">
                            <path d="M1399.73,819.72C1383.63,825.565 1360.02,889.287 1360.02,889.287C1360.02,889.287 1351.29,891.83 1352.05,889.287C1358.82,866.802 1391.48,818.572 1399.42,806.978C1401.83,803.473 1403.68,818.286 1399.73,819.72Z" style="fill:rgb(63,107,82);"/>
                        </g>
                    </g>
                    <path d="M1467.48,637.738C1492.08,636.644 1443.2,640.31 1397.56,768C1391.27,785.59 1379.26,743.161 1391.11,698.229C1392,694.866 1399.78,704.038 1399.78,704.038L1394.46,693.643C1396.09,698.348 1409.09,640.335 1467.48,637.738Z" style="fill:rgb(111,175,122);"/>
                </g>
                <g transform="matrix(1.01078,0,0,1.02791,-15.8763,-17.8239)">
                    <g id="Layer28">
                        <path d="M1473.26,638.657C1471.06,638.092 1410.87,710.095 1399.75,763.297" style="fill:none;stroke:rgb(63,107,82);stroke-width:1.96px;"/>
                    </g>
                </g>
                <g transform="matrix(0.987939,0,0,1.00309,17.8279,-2.20109)">
                    <g id="Layer19">
                        <path d="M1477.72,717.535C1485.22,724.538 1399.49,820.64 1397.42,819.714C1397.42,819.714 1389.99,773.494 1404.54,753.612C1416.2,737.675 1456.32,697.57 1477.72,717.535Z" style="fill:rgb(111,175,122);"/>
                    </g>
                </g>
                <g id="Layer20">
                    <path d="M1393.02,785.027L1360.62,889.287C1360.62,889.287 1354.96,886.499 1355.64,888.045C1356.33,889.592 1378.11,819.72 1378.11,819.72L1386.09,782.218L1393.02,785.027Z" style="fill:rgb(63,107,82);"/>
                </g>
                <g id="Layer30">
                    <path d="M1478.18,719.289C1467.83,742.055 1402.49,822.211 1398.96,820.051" style="fill:none;stroke:rgb(63,107,82);stroke-width:2px;"/>
                </g>
                <g id="Layer31">
                    <path d="M1467.17,824.996C1454.81,819.302 1431.51,823.613 1413.98,832.938C1395.39,842.822 1382.3,858.733 1384.82,860.911C1380.88,861.053 1380.9,855.603 1389.01,848.819C1398.04,841.263 1416,827.292 1445.24,822.947C1450.01,822.238 1456.04,822.349 1460.68,823.048C1466.03,823.854 1469.54,826.088 1467.17,824.996Z" style="fill:rgb(63,107,82);stroke:rgb(63,107,82);stroke-width:2px;"/>
                </g>
                <g transform="matrix(1.00839,0,0,1.00294,-11.7683,-2.62869)">
                    <g id="Layer32">
                        <path d="M1330.59,1010.51C1326.56,1014.62 1312.98,894.229 1316.55,888.682C1346.82,888.608 1373.63,888.614 1402.88,888.682C1405.88,926.538 1398.67,970.528 1388.59,1010.49L1330.59,1010.51Z" style="fill:rgb(180,96,96);stroke:rgb(180,96,96);stroke-width:1.99px;"/>
                    </g>
                </g>
            </g>
        </g>
        <g transform="matrix(0.516443,0,0,0.516443,887.38,544.579)">
            <g id="Pot" transform="matrix(1,0,0,1,2.77294,7.16343)">
                <path d="M654.355,768C643.746,784.525 654.173,864.814 660.781,890.325C663.292,900.022 791.497,894.434 798.671,892.978C805.844,891.523 817.271,789.002 812.437,773.818C807.604,758.635 655.345,766.459 654.355,768Z" style="fill:rgb(200,106,74);"/>
            </g>
            <g id="Leaf11" serif:id="Leaf1" transform="matrix(0.532057,-0.777623,0.777623,0.532057,-172.87,867.123)">
                <g id="Leaf21" serif:id="Leaf2" transform="matrix(-0.0945811,1.63537,-1.63537,-0.0945811,1783.9,-444.476)">
                    <g id="Layer1">
                        <path d="M743.285,611.988C707.943,631.543 738.856,708.549 803.175,688.655C845.035,675.708 786.527,588.061 743.285,611.988Z" style="fill:rgb(36,72,59);"/>
                    </g>
                    <g id="Layer2">
                    </g>
                </g>
                <g id="Layer4">
                    <g transform="matrix(1,0,0,1,0.591258,-1.10753)">
                        <path d="M709.222,708.975C704.557,709.372 606.823,809.201 589.16,817.285C609.564,804.176 704.46,702.091 708.278,707.785L709.222,708.975Z" style="fill:rgb(63,111,90);stroke:rgb(63,111,90);stroke-width:0.82px;"/>
                    </g>
                    <g transform="matrix(1.40099,-0.143783,0.102093,0.994775,-356.173,104.985)">
                        <path d="M705.911,709.685C704.759,711.358 700.554,712.605 699.94,715.158C698.311,721.93 695.81,721.864 699.471,739.258C701.48,748.805 701.641,763.866 695.795,778.328C703.602,772.115 714.343,743.181 713.997,735.072C713.606,725.908 705.09,718.793 705.911,709.685Z" style="fill:rgb(63,111,90);stroke:rgb(63,111,90);stroke-width:0.67px;"/>
                    </g>
                    <g transform="matrix(1,0,0,1,-20.0243,17.3065)">
                        <path d="M713.397,704.332C712.245,706.006 700.096,715.014 699.482,717.567C697.853,724.339 692.337,738.988 695.998,756.382C698.007,765.929 702.815,769.66 696.968,784.122C704.775,777.909 716.737,734.649 713.45,726.489C710.689,719.637 702.376,718.699 713.397,704.332Z" style="fill:rgb(63,111,90);stroke:rgb(63,111,90);stroke-width:0.82px;"/>
                    </g>
                    <g transform="matrix(1,0,0,1,-39.4266,36.1717)">
                        <path d="M711.374,704.818C710.222,706.491 700.554,712.605 699.94,715.158C698.311,721.93 689.861,734.779 693.523,752.172C695.532,761.72 699.725,763.426 697.129,777.718C704.936,771.505 705.135,747.613 705.519,733.705C705.953,717.981 705.779,719.078 711.374,704.818Z" style="fill:rgb(63,111,90);stroke:rgb(63,111,90);stroke-width:0.82px;"/>
                    </g>
                    <g transform="matrix(1,0,0,1,-59.5406,56.0363)">
                        <path d="M709.669,705.204C708.517,706.877 703.361,710.042 702.242,712.418C698.983,719.337 685.631,731.783 692.327,748.249C695.715,756.58 695.31,758.69 693.701,768.399C701.961,761.781 708.403,747.953 706.474,739.006C703.291,724.248 706.456,713.414 709.669,705.204Z" style="fill:rgb(63,111,90);stroke:rgb(63,111,90);stroke-width:0.82px;"/>
                    </g>
                    <g transform="matrix(1,0,0,0.574791,-81.301,380.117)">
                        <path d="M706.572,706.014C705.419,707.687 700.158,714.851 699.543,717.404C697.915,724.176 692.401,731.994 696.062,749.388C698.071,758.935 701.641,763.866 695.795,778.328C703.602,772.115 707.887,748.921 707.611,740.128C707.348,731.731 702.862,715.858 706.572,706.014Z" style="fill:rgb(63,111,90);stroke:rgb(63,111,90);stroke-width:1.01px;"/>
                    </g>
                    <g transform="matrix(0.679709,-0.276555,0.0813878,0.200033,62.99,861.289)">
                        <path d="M723.534,688.349C722.382,690.022 706.297,708.29 705.292,710.923C702.65,717.848 697.334,727.948 696.157,738.153C694.906,749.001 697.389,759.219 693.804,773.438C698.469,780.913 704.32,766.648 706.51,753.78C712.952,715.913 729.407,679.818 723.534,688.349Z" style="fill:rgb(63,111,90);stroke:rgb(63,111,90);stroke-width:1.52px;"/>
                    </g>
                    <g transform="matrix(0.471316,-0.881964,-0.286998,-0.15337,478.041,1533.56)">
                        <path d="M712.421,702.176C711.269,703.85 706.297,708.29 705.292,710.923C702.65,717.848 699.623,728.653 698.822,737.998C697.864,749.185 700.252,756.126 695.548,777.392C699.492,775.577 701.806,770.023 703.862,745.644C705.058,731.471 708.712,712.02 712.421,702.176Z" style="fill:rgb(63,111,90);stroke:rgb(63,111,90);stroke-width:1.11px;"/>
                    </g>
                    <g transform="matrix(0.12085,-0.973427,-0.772818,-0.0959445,1100.48,1528.44)">
                        <path d="M705.911,709.685C704.759,711.358 695.376,717.799 695.286,720.47C695.084,726.505 694.989,733.662 695.51,745.668C696.401,766.167 686.107,777.694 689.69,782.552C700.889,766.849 705.899,784.5 712.568,759.368C713.598,755.485 705.719,743.827 704.756,738.937C702.109,725.489 703.191,716.903 705.911,709.685Z" style="fill:rgb(63,111,90);stroke:rgb(63,111,90);stroke-width:0.93px;"/>
                    </g>
                    <g transform="matrix(0.123203,-0.992381,-1.06762,-0.132544,1325.46,1551.77)">
                        <path d="M707.948,707.452C706.796,709.125 703.149,710.133 702.241,712.609C699.894,719.017 694.239,728.427 697.629,739.133C701.169,750.314 700.621,763.8 695.787,777.979C703.594,771.766 730.209,757.183 718.254,741.513C713.026,734.661 704.239,717.295 707.948,707.452Z" style="fill:rgb(63,111,90);stroke:rgb(63,111,90);stroke-width:0.79px;"/>
                    </g>
                    <g transform="matrix(0.123203,-0.992381,-1.06762,-0.132544,1344.1,1533.23)">
                        <path d="M712.461,703.277C708.888,707.417 699.79,713.763 699.79,713.763C695.996,722.874 694.2,727.115 697.574,736.57C701.765,748.315 712.277,761.319 707.237,785.451C715.044,779.239 727.508,757.037 722.17,745.346C712.223,723.558 711.369,725.916 712.461,703.277Z" style="fill:rgb(63,111,90);stroke:rgb(63,111,90);stroke-width:0.79px;"/>
                    </g>
                    <g transform="matrix(0.43843,-1.6258,-1.03871,-0.280109,1123.64,2063.51)">
                        <path d="M707.652,707.534C706.5,709.208 701.666,712.669 700.783,715.022C697.072,724.912 698.584,732.182 701.224,750.023C702.637,759.572 703.165,762.577 701.507,778.686C708.087,768.165 712.31,749.522 710.488,735.173C708.628,720.527 703.6,720.095 707.652,707.534Z" style="fill:rgb(63,111,90);stroke:rgb(63,111,90);stroke-width:0.58px;"/>
                    </g>
                    <g transform="matrix(0.521343,-0.830882,-0.65965,-0.413902,808.486,1587.5)">
                        <path d="M705.437,709.805C704.285,711.478 703.459,710.215 701.996,712.151C696.684,719.182 693.357,728.023 694.869,738.624C696.6,750.762 695.178,768.652 689.266,778.965C698.03,772.144 706.035,753.594 705.539,743.311C705.04,732.983 700.612,724.587 705.437,709.805Z" style="fill:rgb(63,111,90);stroke:rgb(63,111,90);stroke-width:0.93px;"/>
                    </g>
                </g>
            </g>
            <g id="Leaf22" serif:id="Leaf2" transform="matrix(0.793679,0.210737,-0.210737,0.793679,321.574,-74.3222)">
                <g id="Leaf23" serif:id="Leaf2" transform="matrix(-0.0945811,1.63537,-1.63537,-0.0945811,1783.9,-444.476)">
                    <g id="Layer110" serif:id="Layer1">
                        <path d="M743.285,611.988C707.943,631.543 738.856,708.549 803.175,688.655C845.035,675.708 786.527,588.061 743.285,611.988Z" style="fill:rgb(36,72,59);"/>
                    </g>
                    <g id="Layer29" serif:id="Layer2">
                    </g>
                </g>
                <g id="Layer41" serif:id="Layer4">
                    <g transform="matrix(1,0,0,1,0.591258,-1.10753)">
                        <path d="M709.222,708.975C704.557,709.372 606.823,809.201 589.16,817.285C609.564,804.176 704.46,702.091 708.278,707.785L709.222,708.975Z" style="fill:rgb(63,111,90);stroke:rgb(63,111,90);stroke-width:0.94px;"/>
                    </g>
                    <g transform="matrix(1.40099,-0.143783,0.102093,0.994775,-356.173,104.985)">
                        <path d="M705.911,709.685C704.759,711.358 700.554,712.605 699.94,715.158C698.311,721.93 694.02,730.895 697.682,748.289C699.691,757.836 701.641,763.866 695.795,778.328C703.602,772.115 710.105,744.631 709.759,736.522C709.368,727.359 705.09,718.793 705.911,709.685Z" style="fill:rgb(63,111,90);stroke:rgb(63,111,90);stroke-width:0.77px;"/>
                    </g>
                    <g transform="matrix(1,0,0,1,-20.0243,17.3065)">
                        <path d="M706.998,709.272C705.846,710.945 700.096,715.014 699.482,717.567C697.853,724.339 692.337,738.988 695.998,756.382C698.007,765.929 702.815,769.66 696.968,784.122C704.775,777.909 713.497,751.377 713.221,742.584C712.958,734.187 703.289,719.116 706.998,709.272Z" style="fill:rgb(63,111,90);stroke:rgb(63,111,90);stroke-width:0.94px;"/>
                    </g>
                    <g transform="matrix(1,0,0,1,-39.4266,36.1717)">
                        <path d="M708.008,707.513C706.856,709.186 700.554,712.605 699.94,715.158C698.311,721.93 689.861,734.779 693.523,752.172C695.532,761.72 699.725,763.426 697.129,777.718C704.936,771.505 712.866,751.178 710.231,737.516C707.846,725.156 702.413,721.773 708.008,707.513Z" style="fill:rgb(63,111,90);stroke:rgb(63,111,90);stroke-width:0.94px;"/>
                    </g>
                    <g transform="matrix(1,0,0,1,-59.5406,56.0363)">
                        <path d="M709.669,705.204C708.517,706.877 703.361,710.042 702.242,712.418C698.983,719.337 685.631,731.783 692.327,748.249C695.715,756.58 695.31,758.69 693.701,768.399C701.961,761.781 708.403,747.953 706.474,739.006C703.291,724.248 706.456,713.414 709.669,705.204Z" style="fill:rgb(63,111,90);stroke:rgb(63,111,90);stroke-width:0.94px;"/>
                    </g>
                    <g transform="matrix(1,0,0,0.574791,-81.301,380.117)">
                        <path d="M706.572,706.014C705.419,707.687 700.158,714.851 699.543,717.404C697.915,724.176 692.401,731.994 696.062,749.388C698.071,758.935 701.641,763.866 695.795,778.328C703.602,772.115 707.887,748.921 707.611,740.128C707.348,731.731 702.862,715.858 706.572,706.014Z" style="fill:rgb(63,111,90);stroke:rgb(63,111,90);stroke-width:1.16px;"/>
                    </g>
                    <g transform="matrix(0.679709,-0.276555,0.0813878,0.200033,62.99,861.289)">
                        <path d="M712.421,702.176C711.269,703.85 706.297,708.29 705.292,710.923C702.65,717.848 698.089,723.213 696.912,733.419C695.662,744.266 697.389,759.219 693.804,773.438C697.748,771.622 705.653,762.015 706.136,747.243C706.923,723.18 708.712,712.02 712.421,702.176Z" style="fill:rgb(63,111,90);stroke:rgb(63,111,90);stroke-width:1.74px;"/>
                    </g>
                    <g transform="matrix(0.471316,-0.881964,-0.286998,-0.15337,478.041,1533.56)">
                        <path d="M712.421,702.176C711.269,703.85 706.297,708.29 705.292,710.923C702.65,717.848 699.623,728.653 698.822,737.998C697.864,749.185 700.252,756.126 695.548,777.392C699.492,775.577 708.555,767.946 710.611,743.567C711.807,729.393 708.712,712.02 712.421,702.176Z" style="fill:rgb(63,111,90);stroke:rgb(63,111,90);stroke-width:1.27px;"/>
                    </g>
                    <g transform="matrix(0.12085,-0.973427,-0.772818,-0.0959445,1100.48,1528.44)">
                        <path d="M705.911,709.685C704.759,711.358 695.376,717.799 695.286,720.47C695.084,726.505 689.586,732.752 689.502,743.488C689.407,755.695 695.136,772.843 691.234,780.902C699.041,774.689 707.993,768.457 708.608,752.748C709.205,737.523 702.202,719.528 705.911,709.685Z" style="fill:rgb(63,111,90);stroke:rgb(63,111,90);stroke-width:1.07px;"/>
                    </g>
                    <g transform="matrix(0.123203,-0.992381,-1.06762,-0.132544,1325.46,1551.77)">
                        <path d="M707.948,707.452C706.796,709.125 703.149,710.133 702.241,712.609C699.894,719.017 694.239,728.427 697.629,739.133C701.169,750.314 705.718,759.416 700.884,773.594C708.691,767.382 721,755.317 718.254,741.513C716.611,733.252 704.239,717.295 707.948,707.452Z" style="fill:rgb(63,111,90);stroke:rgb(63,111,90);stroke-width:0.91px;"/>
                    </g>
                    <g transform="matrix(0.123203,-0.992381,-1.06762,-0.132544,1344.1,1533.23)">
                        <path d="M712.461,703.277C708.888,707.417 699.79,713.763 699.79,713.763C695.996,722.874 694.2,727.115 697.574,736.57C701.765,748.315 714.691,756.561 709.651,780.694C717.458,774.481 723.364,754.072 722.17,745.346C718.959,721.866 711.369,725.916 712.461,703.277Z" style="fill:rgb(63,111,90);stroke:rgb(63,111,90);stroke-width:0.91px;"/>
                    </g>
                    <g transform="matrix(0.43843,-1.6258,-1.03871,-0.280109,1123.64,2063.51)">
                        <path d="M707.652,707.534C706.5,709.208 701.666,712.669 700.783,715.022C697.072,724.912 698.584,732.182 701.224,750.023C702.637,759.572 703.165,762.577 701.507,778.686C708.087,768.165 712.31,749.522 710.488,735.173C708.628,720.527 703.6,720.095 707.652,707.534Z" style="fill:rgb(63,111,90);stroke:rgb(63,111,90);stroke-width:0.67px;"/>
                    </g>
                    <g transform="matrix(0.521343,-0.830882,-0.65965,-0.413902,808.486,1587.5)">
                        <path d="M705.437,709.805C704.285,711.478 703.459,710.215 701.996,712.151C696.684,719.182 693.357,728.023 694.869,738.624C696.6,750.762 695.178,768.652 689.266,778.965C698.03,772.144 706.035,753.594 705.539,743.311C705.04,732.983 700.612,724.587 705.437,709.805Z" style="fill:rgb(63,111,90);stroke:rgb(63,111,90);stroke-width:1.07px;"/>
                    </g>
                </g>
            </g>
            <g id="Leaf31" serif:id="Leaf3" transform="matrix(1,0,0,1,-0.328657,-0.454161)">
                <g id="Leaf24" serif:id="Leaf2" transform="matrix(-0.0945811,1.63537,-1.63537,-0.0945811,1783.9,-444.476)">
                    <g id="Layer111" serif:id="Layer1">
                        <path d="M743.285,611.988C707.943,631.543 738.856,708.549 803.175,688.655C845.035,675.708 786.527,588.061 743.285,611.988Z" style="fill:rgb(36,72,59);"/>
                    </g>
                    <g id="Layer210" serif:id="Layer2">
                    </g>
                </g>
                <g id="Layer42" serif:id="Layer4">
                    <g transform="matrix(1,0,0,1,0.591258,-1.10753)">
                        <path d="M709.222,708.975C704.557,709.372 606.823,809.201 589.16,817.285C609.564,804.176 704.46,702.091 708.278,707.785L709.222,708.975Z" style="fill:rgb(63,111,90);stroke:rgb(63,111,90);stroke-width:0.77px;"/>
                    </g>
                    <g transform="matrix(1.40099,-0.143783,0.102093,0.994775,-356.173,104.985)">
                        <path d="M705.911,709.685C704.759,711.358 700.554,712.605 699.94,715.158C698.311,721.93 694.02,730.895 697.682,748.289C699.691,757.836 701.641,763.866 695.795,778.328C703.602,772.115 710.105,744.631 709.759,736.522C709.368,727.359 705.09,718.793 705.911,709.685Z" style="fill:rgb(63,111,90);stroke:rgb(63,111,90);stroke-width:0.63px;"/>
                    </g>
                    <g transform="matrix(1,0,0,1,-20.0243,17.3065)">
                        <path d="M706.998,709.272C705.846,710.945 700.096,715.014 699.482,717.567C697.853,724.339 692.337,738.988 695.998,756.382C698.007,765.929 702.815,769.66 696.968,784.122C704.775,777.909 713.497,751.377 713.221,742.584C712.958,734.187 703.289,719.116 706.998,709.272Z" style="fill:rgb(63,111,90);stroke:rgb(63,111,90);stroke-width:0.77px;"/>
                    </g>
                    <g transform="matrix(1,0,0,1,-39.4266,36.1717)">
                        <path d="M708.008,707.513C706.856,709.186 700.554,712.605 699.94,715.158C698.311,721.93 689.861,734.779 693.523,752.172C695.532,761.72 699.725,763.426 697.129,777.718C704.936,771.505 712.866,751.178 710.231,737.516C707.846,725.156 702.413,721.773 708.008,707.513Z" style="fill:rgb(63,111,90);stroke:rgb(63,111,90);stroke-width:0.77px;"/>
                    </g>
                    <g transform="matrix(1,0,0,1,-59.5406,56.0363)">
                        <path d="M709.669,705.204C708.517,706.877 703.361,710.042 702.242,712.418C698.983,719.337 685.631,731.783 692.327,748.249C695.715,756.58 695.31,758.69 693.701,768.399C701.961,761.781 708.403,747.953 706.474,739.006C703.291,724.248 706.456,713.414 709.669,705.204Z" style="fill:rgb(63,111,90);stroke:rgb(63,111,90);stroke-width:0.77px;"/>
                    </g>
                    <g transform="matrix(1,0,0,0.574791,-81.301,380.117)">
                        <path d="M706.572,706.014C705.419,707.687 700.158,714.851 699.543,717.404C697.915,724.176 692.401,731.994 696.062,749.388C698.071,758.935 701.641,763.866 695.795,778.328C703.602,772.115 707.887,748.921 707.611,740.128C707.348,731.731 702.862,715.858 706.572,706.014Z" style="fill:rgb(63,111,90);stroke:rgb(63,111,90);stroke-width:0.95px;"/>
                    </g>
                    <g transform="matrix(0.679709,-0.276555,0.0813878,0.200033,62.99,861.289)">
                        <path d="M712.421,702.176C711.269,703.85 706.297,708.29 705.292,710.923C702.65,717.848 698.089,723.213 696.912,733.419C695.662,744.266 697.389,759.219 693.804,773.438C697.748,771.622 705.653,762.015 706.136,747.243C706.923,723.18 708.712,712.02 712.421,702.176Z" style="fill:rgb(63,111,90);stroke:rgb(63,111,90);stroke-width:1.43px;"/>
                    </g>
                    <g transform="matrix(0.471316,-0.881964,-0.286998,-0.15337,478.041,1533.56)">
                        <path d="M712.421,702.176C711.269,703.85 706.297,708.29 705.292,710.923C702.65,717.848 699.623,728.653 698.822,737.998C697.864,749.185 700.252,756.126 695.548,777.392C699.492,775.577 708.555,767.946 710.611,743.567C711.807,729.393 708.712,712.02 712.421,702.176Z" style="fill:rgb(63,111,90);stroke:rgb(63,111,90);stroke-width:1.04px;"/>
                    </g>
                    <g transform="matrix(0.12085,-0.973427,-0.772818,-0.0959445,1100.48,1528.44)">
                        <path d="M705.911,709.685C704.759,711.358 695.376,717.799 695.286,720.47C695.084,726.505 689.586,732.752 689.502,743.488C689.407,755.695 695.136,772.843 691.234,780.902C699.041,774.689 707.993,768.457 708.608,752.748C709.205,737.523 702.202,719.528 705.911,709.685Z" style="fill:rgb(63,111,90);stroke:rgb(63,111,90);stroke-width:0.87px;"/>
                    </g>
                    <g transform="matrix(0.123203,-0.992381,-1.06762,-0.132544,1325.46,1551.77)">
                        <path d="M707.948,707.452C706.796,709.125 703.149,710.133 702.241,712.609C699.894,719.017 694.239,728.427 697.629,739.133C701.169,750.314 705.718,759.416 700.884,773.594C708.691,767.382 721,755.317 718.254,741.513C716.611,733.252 704.239,717.295 707.948,707.452Z" style="fill:rgb(63,111,90);stroke:rgb(63,111,90);stroke-width:0.75px;"/>
                    </g>
                    <g transform="matrix(0.123203,-0.992381,-1.06762,-0.132544,1344.1,1533.23)">
                        <path d="M712.461,703.277C708.888,707.417 699.79,713.763 699.79,713.763C695.996,722.874 694.2,727.115 697.574,736.57C701.765,748.315 714.691,756.561 709.651,780.694C717.458,774.481 723.364,754.072 722.17,745.346C718.959,721.866 711.369,725.916 712.461,703.277Z" style="fill:rgb(63,111,90);stroke:rgb(63,111,90);stroke-width:0.75px;"/>
                    </g>
                    <g transform="matrix(0.43843,-1.6258,-1.03871,-0.280109,1123.64,2063.51)">
                        <path d="M707.652,707.534C706.5,709.208 701.666,712.669 700.783,715.022C697.072,724.912 698.584,732.182 701.224,750.023C702.637,759.572 703.165,762.577 701.507,778.686C708.087,768.165 712.31,749.522 710.488,735.173C708.628,720.527 703.6,720.095 707.652,707.534Z" style="fill:rgb(63,111,90);stroke:rgb(63,111,90);stroke-width:0.55px;"/>
                    </g>
                    <g transform="matrix(0.521343,-0.830882,-0.65965,-0.413902,808.486,1587.5)">
                        <path d="M705.437,709.805C704.285,711.478 703.459,710.215 701.996,712.151C696.684,719.182 693.357,728.023 694.869,738.624C696.6,750.762 695.178,768.652 689.266,778.965C698.03,772.144 706.035,753.594 705.539,743.311C705.04,732.983 700.612,724.587 705.437,709.805Z" style="fill:rgb(63,111,90);stroke:rgb(63,111,90);stroke-width:0.87px;"/>
                    </g>
                </g>
            </g>
            <g id="Leaf41" serif:id="Leaf4" transform="matrix(0.161934,-0.87873,0.87873,0.161934,62.9106,1198.33)">
                <g id="Leaf25" serif:id="Leaf2" transform="matrix(-0.0945811,1.63537,-1.63537,-0.0945811,1783.9,-444.476)">
                    <g id="Layer112" serif:id="Layer1">
                        <path d="M743.285,611.988C707.943,631.543 738.856,708.549 803.175,688.655C845.035,675.708 786.527,588.061 743.285,611.988Z" style="fill:rgb(36,72,59);"/>
                    </g>
                    <g id="Layer211" serif:id="Layer2">
                    </g>
                </g>
                <g id="Layer43" serif:id="Layer4">
                    <g transform="matrix(1,0,0,1,0.591258,-1.10753)">
                        <path d="M709.222,708.975C704.557,709.372 606.823,809.201 589.16,817.285C609.564,804.176 704.46,702.091 708.278,707.785L709.222,708.975Z" style="fill:rgb(63,111,90);stroke:rgb(63,111,90);stroke-width:0.87px;"/>
                    </g>
                    <g transform="matrix(1.40099,-0.143783,0.102093,0.994775,-356.173,104.985)">
                        <path d="M705.911,709.685C704.759,711.358 700.554,712.605 699.94,715.158C698.311,721.93 694.02,730.895 697.682,748.289C699.691,757.836 701.641,763.866 695.795,778.328C703.602,772.115 710.105,744.631 709.759,736.522C709.368,727.359 705.09,718.793 705.911,709.685Z" style="fill:rgb(63,111,90);stroke:rgb(63,111,90);stroke-width:0.71px;"/>
                    </g>
                    <g transform="matrix(1,0,0,1,-20.0243,17.3065)">
                        <path d="M706.998,709.272C705.846,710.945 700.096,715.014 699.482,717.567C697.853,724.339 692.337,738.988 695.998,756.382C698.007,765.929 702.815,769.66 696.968,784.122C704.775,777.909 713.497,751.377 713.221,742.584C712.958,734.187 703.289,719.116 706.998,709.272Z" style="fill:rgb(63,111,90);stroke:rgb(63,111,90);stroke-width:0.87px;"/>
                    </g>
                    <g transform="matrix(1,0,0,1,-39.4266,36.1717)">
                        <path d="M708.008,707.513C706.856,709.186 700.554,712.605 699.94,715.158C698.311,721.93 689.861,734.779 693.523,752.172C695.532,761.72 699.725,763.426 697.129,777.718C704.936,771.505 712.866,751.178 710.231,737.516C707.846,725.156 702.413,721.773 708.008,707.513Z" style="fill:rgb(63,111,90);stroke:rgb(63,111,90);stroke-width:0.87px;"/>
                    </g>
                    <g transform="matrix(1,0,0,1,-59.5406,56.0363)">
                        <path d="M709.669,705.204C708.517,706.877 703.361,710.042 702.242,712.418C698.983,719.337 685.631,731.783 692.327,748.249C695.715,756.58 695.31,758.69 693.701,768.399C701.961,761.781 708.403,747.953 706.474,739.006C703.291,724.248 706.456,713.414 709.669,705.204Z" style="fill:rgb(63,111,90);stroke:rgb(63,111,90);stroke-width:0.87px;"/>
                    </g>
                    <g transform="matrix(1,0,0,0.574791,-81.301,380.117)">
                        <path d="M706.572,706.014C705.419,707.687 700.158,714.851 699.543,717.404C697.915,724.176 692.401,731.994 696.062,749.388C698.071,758.935 701.641,763.866 695.795,778.328C703.602,772.115 707.887,748.921 707.611,740.128C707.348,731.731 702.862,715.858 706.572,706.014Z" style="fill:rgb(63,111,90);stroke:rgb(63,111,90);stroke-width:1.06px;"/>
                    </g>
                    <g transform="matrix(0.679709,-0.276555,0.0813878,0.200033,62.99,861.289)">
                        <path d="M712.421,702.176C711.269,703.85 706.297,708.29 705.292,710.923C702.65,717.848 698.089,723.213 696.912,733.419C695.662,744.266 697.389,759.219 693.804,773.438C697.748,771.622 705.653,762.015 706.136,747.243C706.923,723.18 708.712,712.02 712.421,702.176Z" style="fill:rgb(63,111,90);stroke:rgb(63,111,90);stroke-width:1.6px;"/>
                    </g>
                    <g transform="matrix(0.471316,-0.881964,-0.286998,-0.15337,478.041,1533.56)">
                        <path d="M712.421,702.176C711.269,703.85 706.297,708.29 705.292,710.923C702.65,717.848 699.623,728.653 698.822,737.998C697.864,749.185 700.252,756.126 695.548,777.392C699.492,775.577 708.555,767.946 710.611,743.567C711.807,729.393 708.712,712.02 712.421,702.176Z" style="fill:rgb(63,111,90);stroke:rgb(63,111,90);stroke-width:1.17px;"/>
                    </g>
                    <g transform="matrix(0.12085,-0.973427,-0.772818,-0.0959445,1100.48,1528.44)">
                        <path d="M705.911,709.685C704.759,711.358 695.376,717.799 695.286,720.47C695.084,726.505 689.586,732.752 689.502,743.488C689.407,755.695 695.136,772.843 691.234,780.902C699.041,774.689 707.993,768.457 708.608,752.748C709.205,737.523 702.202,719.528 705.911,709.685Z" style="fill:rgb(63,111,90);stroke:rgb(63,111,90);stroke-width:0.98px;"/>
                    </g>
                    <g transform="matrix(0.123203,-0.992381,-1.06762,-0.132544,1325.46,1551.77)">
                        <path d="M707.948,707.452C706.796,709.125 703.149,710.133 702.241,712.609C699.894,719.017 694.239,728.427 697.629,739.133C701.169,750.314 705.718,759.416 700.884,773.594C708.691,767.382 721,755.317 718.254,741.513C716.611,733.252 704.239,717.295 707.948,707.452Z" style="fill:rgb(63,111,90);stroke:rgb(63,111,90);stroke-width:0.83px;"/>
                    </g>
                    <g transform="matrix(0.123203,-0.992381,-1.06762,-0.132544,1344.1,1533.23)">
                        <path d="M712.461,703.277C708.888,707.417 699.79,713.763 699.79,713.763C695.996,722.874 694.2,727.115 697.574,736.57C701.765,748.315 714.691,756.561 709.651,780.694C717.458,774.481 723.364,754.072 722.17,745.346C718.959,721.866 711.369,725.916 712.461,703.277Z" style="fill:rgb(63,111,90);stroke:rgb(63,111,90);stroke-width:0.83px;"/>
                    </g>
                    <g transform="matrix(0.43843,-1.6258,-1.03871,-0.280109,1123.64,2063.51)">
                        <path d="M707.652,707.534C706.5,709.208 701.666,712.669 700.783,715.022C697.072,724.912 698.584,732.182 701.224,750.023C702.637,759.572 703.165,762.577 701.507,778.686C708.087,768.165 712.31,749.522 710.488,735.173C708.628,720.527 703.6,720.095 707.652,707.534Z" style="fill:rgb(63,111,90);stroke:rgb(63,111,90);stroke-width:0.61px;"/>
                    </g>
                    <g transform="matrix(0.521343,-0.830882,-0.65965,-0.413902,808.486,1587.5)">
                        <path d="M705.437,709.805C704.285,711.478 703.459,710.215 701.996,712.151C696.684,719.182 693.357,728.023 694.869,738.624C696.6,750.762 695.178,768.652 689.266,778.965C698.03,772.144 706.035,753.594 705.539,743.311C705.04,732.983 700.612,724.587 705.437,709.805Z" style="fill:rgb(63,111,90);stroke:rgb(63,111,90);stroke-width:0.98px;"/>
                    </g>
                </g>
            </g>
            <g id="Leaf51" serif:id="Leaf5" transform="matrix(0.0197411,-0.683492,0.683492,0.0197411,247.391,1084.86)">
                <g id="Leaf26" serif:id="Leaf2" transform="matrix(-0.0945811,1.63537,-1.63537,-0.0945811,1783.9,-444.476)">
                    <g id="Layer113" serif:id="Layer1">
                        <path d="M743.285,611.988C707.943,631.543 738.856,708.549 803.175,688.655C845.035,675.708 786.527,588.061 743.285,611.988Z" style="fill:rgb(36,72,59);"/>
                    </g>
                    <g id="Layer212" serif:id="Layer2">
                    </g>
                </g>
                <g id="Layer44" serif:id="Layer4">
                    <g transform="matrix(1,0,0,1,0.591258,-1.10753)">
                        <path d="M709.222,708.975C704.557,709.372 606.823,809.201 589.16,817.285C609.564,804.176 704.46,702.091 708.278,707.785L709.222,708.975Z" style="fill:rgb(63,111,90);stroke:rgb(63,111,90);stroke-width:1.13px;"/>
                    </g>
                    <g transform="matrix(1.40099,-0.143783,0.102093,0.994775,-356.173,104.985)">
                        <path d="M705.911,709.685C704.759,711.358 700.554,712.605 699.94,715.158C698.311,721.93 694.02,730.895 697.682,748.289C699.691,757.836 701.641,763.866 695.795,778.328C703.602,772.115 710.105,744.631 709.759,736.522C709.368,727.359 705.09,718.793 705.911,709.685Z" style="fill:rgb(63,111,90);stroke:rgb(63,111,90);stroke-width:0.93px;"/>
                    </g>
                    <g transform="matrix(1,0,0,1,-20.0243,17.3065)">
                        <path d="M706.998,709.272C705.846,710.945 700.096,715.014 699.482,717.567C697.853,724.339 692.337,738.988 695.998,756.382C698.007,765.929 702.815,769.66 696.968,784.122C704.775,777.909 713.497,751.377 713.221,742.584C712.958,734.187 703.289,719.116 706.998,709.272Z" style="fill:rgb(63,111,90);stroke:rgb(63,111,90);stroke-width:1.13px;"/>
                    </g>
                    <g transform="matrix(1,0,0,1,-39.4266,36.1717)">
                        <path d="M708.008,707.513C706.856,709.186 700.554,712.605 699.94,715.158C698.311,721.93 689.861,734.779 693.523,752.172C695.532,761.72 699.725,763.426 697.129,777.718C704.936,771.505 712.866,751.178 710.231,737.516C707.846,725.156 702.413,721.773 708.008,707.513Z" style="fill:rgb(63,111,90);stroke:rgb(63,111,90);stroke-width:1.13px;"/>
                    </g>
                    <g transform="matrix(1,0,0,1,-59.5406,56.0363)">
                        <path d="M709.669,705.204C708.517,706.877 703.361,710.042 702.242,712.418C698.983,719.337 685.631,731.783 692.327,748.249C695.715,756.58 695.31,758.69 693.701,768.399C701.961,761.781 708.403,747.953 706.474,739.006C703.291,724.248 706.456,713.414 709.669,705.204Z" style="fill:rgb(63,111,90);stroke:rgb(63,111,90);stroke-width:1.13px;"/>
                    </g>
                    <g transform="matrix(1,0,0,0.574791,-81.301,380.117)">
                        <path d="M706.572,706.014C705.419,707.687 700.158,714.851 699.543,717.404C697.915,724.176 692.401,731.994 696.062,749.388C698.071,758.935 701.641,763.866 695.795,778.328C703.602,772.115 707.887,748.921 707.611,740.128C707.348,731.731 702.862,715.858 706.572,706.014Z" style="fill:rgb(63,111,90);stroke:rgb(63,111,90);stroke-width:1.39px;"/>
                    </g>
                    <g transform="matrix(0.679709,-0.276555,0.0813878,0.200033,62.99,861.289)">
                        <path d="M712.421,702.176C711.269,703.85 706.297,708.29 705.292,710.923C702.65,717.848 698.089,723.213 696.912,733.419C695.662,744.266 697.389,759.219 693.804,773.438C697.748,771.622 705.653,762.015 706.136,747.243C706.923,723.18 708.712,712.02 712.421,702.176Z" style="fill:rgb(63,111,90);stroke:rgb(63,111,90);stroke-width:2.09px;"/>
                    </g>
                    <g transform="matrix(0.471316,-0.881964,-0.286998,-0.15337,478.041,1533.56)">
                        <path d="M712.421,702.176C711.269,703.85 706.297,708.29 705.292,710.923C702.65,717.848 699.623,728.653 698.822,737.998C697.864,749.185 700.252,756.126 695.548,777.392C699.492,775.577 708.555,767.946 710.611,743.567C711.807,729.393 708.712,712.02 712.421,702.176Z" style="fill:rgb(63,111,90);stroke:rgb(63,111,90);stroke-width:1.52px;"/>
                    </g>
                    <g transform="matrix(0.12085,-0.973427,-0.772818,-0.0959445,1100.48,1528.44)">
                        <path d="M705.911,709.685C704.759,711.358 695.376,717.799 695.286,720.47C695.084,726.505 689.586,732.752 689.502,743.488C689.407,755.695 695.136,772.843 691.234,780.902C699.041,774.689 707.993,768.457 708.608,752.748C709.205,737.523 702.202,719.528 705.911,709.685Z" style="fill:rgb(63,111,90);stroke:rgb(63,111,90);stroke-width:1.28px;"/>
                    </g>
                    <g transform="matrix(0.123203,-0.992381,-1.06762,-0.132544,1325.46,1551.77)">
                        <path d="M707.948,707.452C706.796,709.125 703.149,710.133 702.241,712.609C699.894,719.017 694.239,728.427 697.629,739.133C701.169,750.314 705.718,759.416 700.884,773.594C708.691,767.382 721,755.317 718.254,741.513C716.611,733.252 704.239,717.295 707.948,707.452Z" style="fill:rgb(63,111,90);stroke:rgb(63,111,90);stroke-width:1.09px;"/>
                    </g>
                    <g transform="matrix(0.123203,-0.992381,-1.06762,-0.132544,1344.1,1533.23)">
                        <path d="M712.461,703.277C708.888,707.417 699.79,713.763 699.79,713.763C695.996,722.874 694.2,727.115 697.574,736.57C701.765,748.315 714.691,756.561 709.651,780.694C717.458,774.481 723.364,754.072 722.17,745.346C718.959,721.866 711.369,725.916 712.461,703.277Z" style="fill:rgb(63,111,90);stroke:rgb(63,111,90);stroke-width:1.09px;"/>
                    </g>
                    <g transform="matrix(0.43843,-1.6258,-1.03871,-0.280109,1123.64,2063.51)">
                        <path d="M707.652,707.534C706.5,709.208 701.666,712.669 700.783,715.022C697.072,724.912 698.584,732.182 701.224,750.023C702.637,759.572 703.165,762.577 701.507,778.686C708.087,768.165 712.31,749.522 710.488,735.173C708.628,720.527 703.6,720.095 707.652,707.534Z" style="fill:rgb(63,111,90);stroke:rgb(63,111,90);stroke-width:0.8px;"/>
                    </g>
                    <g transform="matrix(0.521343,-0.830882,-0.65965,-0.413902,808.486,1587.5)">
                        <path d="M705.437,709.805C704.285,711.478 703.459,710.215 701.996,712.151C696.684,719.182 693.357,728.023 694.869,738.624C696.6,750.762 695.178,768.652 689.266,778.965C698.03,772.144 706.035,753.594 705.539,743.311C705.04,732.983 700.612,724.587 705.437,709.805Z" style="fill:rgb(63,111,90);stroke:rgb(63,111,90);stroke-width:1.28px;"/>
                    </g>
                </g>
            </g>
            <g id="Stems">
                <g id="Layer5">
                    <path d="M737.798,672.811C737.784,672.854 737.798,696.003 737.798,696.003L741.912,694.351L742.101,678.953" style="fill:rgb(36,72,59);"/>
                </g>
                <g id="Layer6">
                    <path d="M715.001,691.782L715.714,715.536L721.033,710.543L720.49,685.764" style="fill:rgb(36,72,59);"/>
                </g>
            </g>
        </g>
        <g transform="matrix(1.78785,0,0,1.78785,-987.527,-763.641)">
            <g id="Layer38">
                <g transform="matrix(1.28421,0,0,1.70359,-349.029,-689.594)">
                    <ellipse cx="1248.09" cy="979.515" rx="3.295" ry="2.609" style="fill:rgb(226,221,211);"/>
                </g>
                <g transform="matrix(1.66608,0,0,0.979295,-837.308,18.0953)">
                    <ellipse id="left-eye" cx="1255.09" cy="981.32" rx="1.319" ry="2.222"/>
                </g>
            </g>
        </g>
        <g transform="matrix(1.78785,0,0,1.78785,-895.357,-838.688)">
            <g id="Layer381" serif:id="Layer38">
                <g transform="matrix(1.28421,0,0,2.28833,-349.029,-1262.36)">
                    <ellipse cx="1248.09" cy="979.515" rx="3.295" ry="2.609" style="fill:rgb(226,221,211);"/>
                </g>
                <g transform="matrix(1.66608,0,0,1.48965,-837.308,-482.724)">
                    <ellipse id="second-left-eye" cx="1255.09" cy="981.32" rx="1.319" ry="2.222"/>
                </g>
            </g>
        </g>
        <g transform="matrix(1.78785,-0.00209687,0.00209687,1.78785,-874.841,-836.058)">
            <g id="Layer382" serif:id="Layer38">
                <g transform="matrix(1.28421,0,0,2.28833,-349.029,-1262.36)">
                    <ellipse cx="1248.09" cy="979.515" rx="3.295" ry="2.609" style="fill:rgb(226,221,211);"/>
                </g>
                <g transform="matrix(1.66608,0,0,1.48965,-837.308,-482.724)">
                    <ellipse id="second-right-eye" cx="1255.09" cy="981.32" rx="1.319" ry="2.222"/>
                </g>
            </g>
        </g>
        <g transform="matrix(1.78785,0,0,1.78785,-967.669,-763.641)">
            <g id="Layer383" serif:id="Layer38">
                <g transform="matrix(1.28421,0,0,1.70359,-349.029,-689.594)">
                    <ellipse cx="1248.09" cy="979.515" rx="3.295" ry="2.609" style="fill:rgb(226,221,211);"/>
                </g>
                <g transform="matrix(1.66608,0,0,0.979295,-837.308,18.0953)">
                    <ellipse id="right-eye" cx="1255.09" cy="981.32" rx="1.319" ry="2.222"/>
                </g>
            </g>
        </g>
    </g>
</svg>
