<?xml version="1.0" encoding="UTF-8" standalone="no"?>
<!DOCTYPE svg PUBLIC "-//W3C//DTD SVG 1.1//EN" "http://www.w3.org/Graphics/SVG/1.1/DTD/svg11.dtd">
<svg width="100%" height="100%" viewBox="0 0 1317 570" version="1.1" xmlns="http://www.w3.org/2000/svg" xmlns:xlink="http://www.w3.org/1999/xlink" xml:space="preserve" xmlns:serif="http://www.serif.com/" style="fill-rule:evenodd;clip-rule:evenodd;stroke-linecap:round;stroke-linejoin:round;stroke-miterlimit:1.5;">
    <g transform="matrix(1,0,0,1,-540.938,-521.638)">
        <g id="Layer43">
            <rect x="279.091" y="191.976" width="1739.85" height="1264.24" style="fill:rgb(31,26,23);"/>
        </g>
        <g transform="matrix(0.519556,0,0,0.478271,520.153,453.236)">
            <g id="Layer16">
                <path d="M687.852,1198.18C687.852,1198.18 689.498,1287.71 694.327,1305.58C696.284,1312.82 715.099,1312.81 716.83,1305.42C721.929,1283.64 726.555,1202.85 726.555,1202.85C726.555,1202.85 691.192,1210.95 687.852,1198.18Z" style="fill:rgb(142,116,96);"/>
            </g>
            <g id="Layer17">
                <path d="M569.929,1066.76C569.929,1066.76 573.008,1113.8 576.499,1123.56C578.125,1128.11 587.609,1130.92 590.877,1125.32C594.531,1119.05 594.769,1084.06 594.769,1084.06" style="fill:rgb(118,100,88);"/>
            </g>
            <g id="Layer18">
                <path d="M1006.07,1118.45C1006.07,1118.45 1009.72,1184.89 1013.88,1198.18C1015.59,1203.63 1029.38,1203.65 1031.02,1198.18C1035.91,1181.88 1043.24,1100.35 1043.24,1100.35" style="fill:rgb(136,112,97);"/>
            </g>
            <g id="Layer3">
                <path d="M763.6,547.204C757.423,538.54 834.205,498.29 836.725,498.377C839.244,498.465 895.799,515.257 869.589,603.39C859.807,636.28 847.866,676.616 846.065,704.051C844.642,725.738 857.699,751.686 858.784,768C860.7,796.787 1030.4,752.167 1067.51,756.826C1081.25,758.551 1082.79,782.173 1081.46,795.955C1080.08,810.211 1062.86,823.478 1059.24,842.358C1055.42,862.321 1044.71,931.44 1044.71,931.44L835.662,910.673" style="fill:rgb(191,169,144);"/>
            </g>
            <g id="Layer2">
                <path d="M485.394,528.47C558.67,519.293 675.345,515.024 771.217,521.793C807.559,524.359 808.046,688.66 815.179,725.203C834.463,823.994 854.299,912.102 836.237,903.328C829.006,899.815 630.561,928.725 616.587,941.206C616.587,941.206 420.211,536.634 485.394,528.47Z" style="fill:rgb(184,162,139);"/>
            </g>
            <g id="Layer27">
                <path d="M654.927,932.443C718.566,925.831 845.843,912.608 846.521,908.711C850.25,887.256 757.301,894.165 654.927,918.626" style="fill:rgb(113,99,86);"/>
            </g>
            <g transform="matrix(1.02943,0.00680835,-0.00678555,1.02598,-10.2551,-26.4272)">
                <g id="Layer6">
                    <path d="M441.285,554.507L467.16,525.033C517.393,579.256 514.39,692.547 525.207,813.099C547.701,846.119 584.612,869.05 640.186,896.751C649.265,941.828 725.546,1161.03 704.81,1192.91C682.164,1227.73 552.198,1073.1 540.972,1035.83C516.498,954.562 475.745,732.173 441.285,554.507Z" style="fill:rgb(151,133,116);"/>
                </g>
            </g>
            <g id="Layer7">
                <path d="M656.984,1082.44C656.984,1082.44 658.385,1146.12 666.808,1184C670.058,1198.61 697.898,1216.1 716.833,1212.74C779.899,1201.54 935.801,1151.52 1045.2,1116.8C1052.34,1118.78 1072.22,995.394 1064.24,987.593C1060.35,983.791 656.984,1082.44 656.984,1082.44Z" style="fill:rgb(142,124,108);"/>
            </g>
            <g transform="matrix(0.98765,-0.0703074,0.0703074,0.98765,-48.3204,78.0535)">
                <g id="Layer12">
                    <path d="M881.434,771.116C870.144,771.284 845.251,850.982 860.884,871.208C876.518,891.433 950.864,910.079 975.234,892.471C999.603,874.862 1032.65,763.233 1007.1,765.557C988.184,767.277 906.271,770.747 881.434,771.116Z" style="fill:rgb(195,171,144);"/>
                </g>
            </g>
            <g id="Layer11">
                <path d="M861.144,515.428C867.813,517.44 890.925,554.669 862.921,629.504C854.955,656.663 848.48,687.498 846.517,702.475C844.582,707.161 842.753,659.38 860.403,614.636C872.021,585.187 858.738,514.702 861.144,515.428Z" style="fill:rgb(168,148,129);"/>
            </g>
            <g id="Layer8">
                <path d="M1024,931.44C1024,931.44 1031.69,825.646 1038.48,799.481C1041.52,787.777 1060.27,774.019 1064.75,774.455C1069.22,774.891 1080.63,791.901 1065.34,802.097C1048.11,813.582 1039.43,937.97 1038.75,931.44L1024,931.44Z" style="fill:rgb(153,135,121);"/>
            </g>
            <g id="Layer13">
                <path d="M781.992,529.401C801.487,556.772 808.905,622.968 812.083,702.794C840.26,839.634 853.047,918.769 843.341,913.567C838.7,861.735 826.761,787.586 808.12,710.859C806.679,656.104 797.162,553.776 781.992,529.401Z" style="fill:rgb(158,142,123);"/>
            </g>
            <g id="Layer10">
                <path d="M510.378,566.638C510.378,566.638 566.126,593.725 538.268,742.498C510.411,891.272 509.412,719.789 509.412,719.789L510.378,566.638Z" style="fill:rgb(151,133,116);"/>
            </g>
            <g id="Layer4">
                <path d="M659.913,999.793C663.287,992.47 668.596,995.574 695.867,988.101C705.364,985.498 630.284,959.216 651.182,939.194C659.485,931.239 680.77,923.738 705.909,917.56C713.195,915.769 720.805,914.089 728.517,912.542C768.021,904.615 810.184,900.162 825.115,902.031C898.861,911.261 1024,918.607 1024,918.607C1023,916.228 1061.21,913.558 1072.03,917.877C1075.1,919.099 1083.35,921.203 1083.96,925.97C1085.69,939.509 1104.27,988.333 1082.39,999.114C1024.51,1027.64 808.086,1087.12 736.694,1097.11C709.867,1100.87 669.373,1092.71 656.576,1076.49C643.779,1060.27 659.913,999.793 659.913,999.793Z" style="fill:rgb(182,160,137);"/>
            </g>
            <g id="Layer19">
                <path d="M687.852,951.793C704.53,959.833 737.885,975.914 741.111,986.142C744.336,996.369 712.47,1011.21 707.204,1013.16C659.445,1030.85 663.539,1006.32 655.563,998.78" style="fill:rgb(163,145,124);"/>
            </g>
            <g id="Layer15">
                <path d="M655.718,998.78C655.718,998.78 708.129,1019.03 735.245,1016.98C774.787,1013.98 892.968,980.83 892.968,980.83C892.968,980.83 992.182,956.015 1024,946.872C1044.32,941.033 1083.88,925.97 1083.88,925.97C1093.55,955.701 1100.23,994.651 1080.17,1005.33C1011.3,1042.01 746.147,1102.18 726.319,1100.3C712.07,1098.96 657.735,1099.12 647.724,1075.57C641.108,1060 639.442,1010.13 655.889,999.812C658.56,998.137 655.718,998.78 655.718,998.78Z" style="fill:rgb(151,133,116);"/>
            </g>
            <g id="Layer23">
                <path d="M651.196,1003.31C651.196,1003.31 624.592,1031.58 656.137,1085.57" style="fill:none;stroke:rgb(113,99,86);stroke-width:8.01px;"/>
            </g>
            <g id="Layer26">
                <path d="M559.109,854.839C559.109,854.839 537.011,847.909 565.404,904.498C572.361,918.364 603.504,920.151 615.789,927.063C624.513,931.971 632.593,940.006 639.116,945.97C644.805,951.173 654.927,962.851 654.927,962.851L639.117,891.203L559.109,854.839Z" style="fill:rgb(113,99,86);"/>
            </g>
            <g id="Layer5">
                <path d="M435.045,538.063C435.045,538.063 457.557,500.108 473.063,503.757C539.613,519.416 534.453,720.227 528.048,714.732C525.117,712.218 556.808,789.058 560.763,813.268C562.931,826.54 621.947,793.17 660.781,831.669C691.315,861.939 698.121,992.678 692.568,987.885L656.611,998.78L642.374,897.512C610.713,930.957 556.91,878.275 531.918,838.875C517.288,815.811 492.345,765.048 497.214,701.875C501.978,640.049 486.83,567.266 472.05,527.971C462.675,503.047 447.593,570.308 435.045,538.063Z" style="fill:rgb(191,169,144);"/>
            </g>
            <g id="Layer20">
                <path d="M655.563,998.78C654.722,1001.6 644.7,923.361 639.633,896.651C637.141,883.52 619.893,871.92 617.86,862.981C616.224,855.786 620.824,845.89 627.434,843.021C634.044,840.152 650.783,838.282 657.519,845.767C665.092,854.181 669.77,877.078 672.87,893.502C677.427,917.646 682.384,966.299 684.863,990.626" style="fill:rgb(142,124,108);"/>
            </g>
            <g id="Layer14">
                <g transform="matrix(1,0,0,1,0,-9.67299)">
                    <ellipse cx="787.866" cy="738.538" rx="5.874" ry="7.26" style="fill:rgb(158,142,123);"/>
                </g>
                <g transform="matrix(1,0,0,1,-53.3242,-2.41294)">
                    <ellipse cx="787.866" cy="738.538" rx="5.874" ry="7.26" style="fill:rgb(158,142,123);"/>
                </g>
                <g transform="matrix(1,0,0,1,-111.276,4.84712)">
                    <ellipse cx="787.866" cy="738.538" rx="5.874" ry="7.26" style="fill:rgb(158,142,123);"/>
                </g>
                <g transform="matrix(1,0,0,1,-167.543,12.1072)">
                    <ellipse cx="787.866" cy="738.538" rx="5.874" ry="7.26" style="fill:rgb(158,142,123);"/>
                </g>
                <g transform="matrix(1,0,0,1,-223.811,19.3672)">
                    <ellipse cx="787.866" cy="738.538" rx="5.874" ry="7.26" style="fill:rgb(158,142,123);"/>
                </g>
            </g>
            <g id="Layer24">
                <path d="M527.124,717.464C527.503,717.424 527.875,717.261 528.186,716.971C528.925,716.281 528.929,715.567 528.934,715.333C528.95,714.547 528.652,713.953 528.065,713.532C527.893,713.409 527.253,712.953 526.223,713.334C524.595,713.935 511.108,721.37 497.576,721.37C496.513,721.37 495.651,722.307 495.651,723.461C495.651,724.614 496.513,725.551 497.576,725.551C510.469,725.551 524.763,718.651 527.124,717.464ZM525.316,714.247L525.312,714.255L525.337,714.214L525.316,714.247ZM525.516,713.968L525.469,714.024C525.449,714.051 525.429,714.078 525.408,714.105L525.359,714.179C525.403,714.109 525.455,714.039 525.516,713.968ZM525.565,713.911L525.544,713.936L525.585,713.891L525.565,713.911Z" style="fill:rgb(113,99,86);"/>
                <path d="M563.55,813.671C560.497,812.859 556.759,814.632 553.099,818.119C545.651,825.215 538.08,839.118 536.479,843.92C536.118,845.005 536.635,846.205 537.634,846.597C538.633,846.99 539.737,846.428 540.099,845.343C541.594,840.859 548.681,827.89 555.637,821.263C557.019,819.946 558.388,818.887 559.708,818.246C560.745,817.742 561.729,817.492 562.636,817.733C563.667,818.007 564.71,817.32 564.963,816.199C565.215,815.078 564.582,813.945 563.55,813.671Z" style="fill:rgb(113,99,86);"/>
                <path d="M616.966,854.505C617.021,854.775 617.128,855.038 617.287,855.276C617.912,856.209 619.117,856.415 619.976,855.736C621.04,854.895 621.158,853.909 620.988,853.078C620.856,852.433 620.31,851.494 619.011,850.864C616.871,849.826 611.426,848.805 606.916,847.942C604.246,847.432 601.939,847.012 601.133,846.61C600.169,846.127 599.024,846.587 598.58,847.635C598.136,848.683 598.559,849.926 599.524,850.408C601.466,851.379 611.279,852.726 616.044,854.171C616.349,854.263 616.682,854.389 616.966,854.505Z" style="fill:rgb(113,99,86);"/>
                <path d="M640.965,841.692C640.377,842.375 640.266,843.429 640.753,844.251C641.328,845.221 642.52,845.502 643.413,844.877C643.61,844.74 643.912,844.468 644.197,843.972C644.548,843.361 645.114,841.92 645.598,839.974C646.384,836.81 646.997,832.237 646.272,827.982C645.751,824.924 644.551,822.034 642.346,819.828C641.564,819.047 640.346,819.102 639.626,819.951C638.907,820.8 638.957,822.123 639.739,822.905C641.791,824.957 642.544,827.876 642.712,830.76C642.984,835.417 641.718,840.062 641.005,841.609L640.965,841.692Z" style="fill:rgb(113,99,86);"/>
                <path d="M623.646,876.304C623.226,876.704 622.707,877.176 622.227,877.554C618.56,880.445 612.628,884.107 612,884.484C611.07,885.042 610.732,886.315 611.246,887.325C611.759,888.335 612.931,888.703 613.861,888.145C614.469,887.78 619.87,884.443 623.681,881.561C625.506,880.181 626.975,878.855 627.585,877.963C628.396,876.776 628.303,875.704 628.001,875.024C627.721,874.395 627.054,873.571 625.503,873.54C624.441,873.519 623.563,874.439 623.544,875.593C623.54,875.841 623.576,876.081 623.646,876.304Z" style="fill:rgb(113,99,86);"/>
                <path d="M843.533,702.08C842.679,703.04 841.283,704.46 839.981,705.111C832.735,708.734 825.762,708.042 817.887,708.042C816.825,708.042 815.962,708.979 815.962,710.133C815.962,711.287 816.825,712.223 817.887,712.223C826.342,712.223 833.81,712.799 841.59,708.909C844.639,707.385 847.391,703.886 847.8,702.962C848.235,701.981 847.969,701.243 847.809,700.911C847.598,700.471 847.282,700.15 846.862,699.949C846.55,699.8 846.098,699.668 845.497,699.857C845.29,699.922 844.822,700.137 844.177,700.75C843.804,701.105 843.587,701.583 843.533,702.08Z" style="fill:rgb(113,99,86);"/>
                <path d="M858.149,771.467C857.688,772.08 856.82,773.226 855.875,774.419C852.182,779.081 846.161,786.594 844.298,790.32C843.791,791.334 844.138,792.604 845.071,793.155C846.004,793.706 847.174,793.33 847.681,792.316C849.462,788.753 855.261,781.604 858.793,777.147C860.496,774.996 861.701,773.377 861.922,772.907C862.49,771.699 861.98,770.859 861.742,770.534C861.511,770.218 860.488,769.09 858.966,770.18C858.534,770.489 858.254,770.957 858.149,771.467Z" style="fill:rgb(113,99,86);"/>
                <path d="M1063.42,774.338C1063.15,773.86 1062.78,773.183 1062.43,772.529C1059.38,766.784 1052.79,755.623 1041.56,755.623C1040.5,755.623 1039.64,756.56 1039.64,757.714C1039.64,758.868 1040.5,759.805 1041.56,759.805C1048.87,759.805 1053.69,765.643 1056.72,770.474C1058.26,772.908 1059.35,775.138 1060.06,776.44C1060.53,777.286 1060.93,777.839 1061.19,778.082C1062.09,778.912 1062.92,778.756 1063.51,778.437C1063.9,778.223 1064.46,777.782 1064.66,776.718C1064.85,775.688 1064.3,774.681 1063.42,774.338Z" style="fill:rgb(113,99,86);"/>
                <path d="M1073.19,794.959C1073.43,794.972 1073.69,794.991 1073.92,795.017C1076.95,795.348 1081.38,796.204 1083.16,796.204C1084.22,796.204 1085.09,795.267 1085.09,794.113C1085.09,792.959 1084.22,792.022 1083.16,792.022C1081.46,792.022 1077.21,791.173 1074.31,790.856C1072.67,790.677 1071.35,790.722 1070.76,790.933C1069.71,791.309 1069.32,792.096 1069.21,792.815C1069.12,793.369 1069.17,794.448 1070.4,795.478C1071.25,796.18 1072.46,796.007 1073.1,795.092C1073.13,795.049 1073.16,795.004 1073.19,794.959Z" style="fill:rgb(113,99,86);"/>
                <path d="M1062.7,809.481C1062.86,811.494 1063.14,814.561 1063.62,816.5C1063.9,817.614 1064.96,818.272 1065.99,817.97C1067.01,817.667 1067.62,816.518 1067.34,815.404C1066.71,812.907 1066.49,808.366 1066.4,807.331C1066.31,806.214 1065.75,805.739 1065.7,805.692C1065.35,805.376 1064.99,805.249 1064.65,805.212C1064.22,805.164 1063.79,805.255 1063.37,805.564C1063.19,805.698 1062.73,806.027 1062.57,806.891C1062.55,806.971 1062.52,807.492 1062.52,808.607C1062.52,808.919 1062.59,809.215 1062.7,809.481Z" style="fill:rgb(113,99,86);"/>
            </g>
            <g id="Layer25">
                <path d="M734.538,730.46C733.193,728.185 732.716,725.094 731.6,722.491" style="fill:none;stroke:rgb(151,142,134);stroke-width:0.8px;"/>
                <path d="M734.538,744.129C735.521,744.789 734.72,748.971 734.434,750.83" style="fill:none;stroke:rgb(151,142,134);stroke-width:0.8px;"/>
                <path d="M786.05,722.498C786.477,723.454 783.787,714.81 783.082,713.281" style="fill:none;stroke:rgb(151,142,134);stroke-width:0.8px;"/>
                <path d="M787.9,735.784C788.703,731.377 788.054,740.253 788.041,740.439" style="fill:none;stroke:rgb(151,142,134);stroke-width:0.8px;"/>
                <path d="M674.983,736.518C677.258,738.352 673.787,729.424 673.506,728.395" style="fill:none;stroke:rgb(151,142,134);stroke-width:0.8px;"/>
                <path d="M676.484,750.996C678.481,751.423 677.705,754.837 677.521,756.497" style="fill:none;stroke:rgb(151,142,134);stroke-width:0.8px;"/>
                <path d="M617.661,745.45C618.462,742.433 617.473,739.534 615.789,737.008" style="fill:none;stroke:rgb(151,142,134);stroke-width:0.8px;"/>
                <path d="M620.177,759.435C622.137,759.021 621.973,759.659 621.973,761.741" style="fill:none;stroke:rgb(151,142,134);stroke-width:0.8px;"/>
                <path d="M561.165,753.271C561.239,749.039 560.702,746.658 559.109,742.676" style="fill:none;stroke:rgb(151,142,134);stroke-width:0.8px;"/>
                <path d="M564.184,765.992C568.099,765.539 566.23,771.061 565.808,773.592" style="fill:none;stroke:rgb(151,142,134);stroke-width:0.8px;"/>
            </g>
        </g>
        <g transform="matrix(1,0,0,1.41672,6.3695,-204.089)">
            <g id="Layer44">
                <path d="M628.69,598.672C635.384,601.15 504.007,848.349 541.22,885.919C578.432,923.49 793.606,923.264 837.52,885.919C881.433,848.575 746.184,599.834 746.184,599.834C746.184,599.834 621.996,596.195 628.69,598.672Z" style="fill:rgb(255,181,0);fill-opacity:0.18;"/>
            </g>
        </g>
        <g transform="matrix(1.02711,0,0,1.02711,-31.8235,-30.4369)">
            <g id="Layer31">
                <path d="M632.334,650.592C621.847,653.345 699.705,666.049 773.847,657.142C785.847,655.701 691.805,636.677 701.059,638.731C676.532,640.641 656.222,641.971 632.334,650.592Z" style="fill:rgb(158,119,74);"/>
            </g>
            <g id="Layer41">
                <path d="M696.575,909.089L696.575,914.593C706.39,919.419 713.751,919.305 722.208,914.593L722.208,907.512L696.575,909.089Z" style="fill:rgb(92,50,19);"/>
            </g>
            <g transform="matrix(0.814246,0,0,0.691681,129.523,270.374)">
                <g id="Layer40">
                    <ellipse cx="712.154" cy="923.25" rx="15.74" ry="8.131" style="fill:rgb(166,110,67);"/>
                </g>
            </g>
            <g id="Layer39">
                <path d="M702.127,791.079L704.26,907.372C706.465,910.086 714.062,909.212 715.314,907.298L713.839,791.079L702.127,791.079Z" style="fill:rgb(88,47,9);"/>
            </g>
            <g id="Layer38">
                <path d="M699.118,785.319L699.486,795.846C704.722,796.939 710.312,797.307 713.839,796.027C713.839,796.027 713.349,789.602 713.839,785.571" style="fill:rgb(81,42,10);"/>
            </g>
            <g id="Layer42">
                <path d="M709.391,793.743L745.284,996.033L757.472,1009.05L715.42,787.881L709.391,793.743Z" style="fill:rgb(88,47,9);"/>
            </g>
            <g transform="matrix(1,0,0,1,3.16766,1.23495)">
                <g>
                    <g id="Layer33">
                        <path d="M717.984,784.199L773.847,1080.13L783.45,1075.19L727.74,783.867L717.984,784.199Z" style="fill:rgb(124,73,30);"/>
                    </g>
                    <g id="Layer34">
                        <path d="M709.186,783.867L764.664,1075.19L774.542,1080.13L717.984,783.867" style="fill:rgb(144,87,45);"/>
                    </g>
                </g>
                <g transform="matrix(0.929373,0,0,1,-24.9735,2.77112e-13)">
                    <g id="Layer331" serif:id="Layer33">
                        <path d="M767.287,783.867L671.349,1061.13L679.214,1061.13L777.158,783.867L767.287,783.867Z" style="fill:rgb(124,73,30);"/>
                    </g>
                    <g id="Layer341" serif:id="Layer34">
                        <path d="M761.358,776.067L667.791,1051.69L671.423,1061.13C705.694,969.851 735.338,877.572 767.287,783.867" style="fill:rgb(107,61,18);"/>
                    </g>
                </g>
            </g>
            <g id="Layer37">
                <path d="M679.974,774.223L679.974,785.319C698.213,789.5 715.655,790.787 735.288,785.319L735.288,774.223L705.564,777.302L679.974,774.223Z" style="fill:rgb(89,50,18);"/>
            </g>
            <g transform="matrix(1.14192,0,0,0.648483,-111.864,266.33)">
                <g id="Layer35">
                    <ellipse cx="717.644" cy="783.203" rx="24.22" ry="7.136" style="fill:rgb(241,169,98);"/>
                </g>
            </g>
            <g id="Layer36">
                <path d="M707.631,774.223C705.982,774.121 702.685,773.916 701.939,774.223C701.258,774.504 702.537,775.595 703.154,776.067C704.188,776.858 706.192,777.207 707.631,777.289C711.066,777.486 714.123,775.408 713.818,774.223" style="fill:rgb(89,50,18);"/>
            </g>
            <g id="Layer32">
                <path d="M698.123,649.42C699.199,646.67 700.221,753.423 702.669,774.223C703.064,777.58 712.62,777.598 712.808,774.223C713.962,753.423 709.593,649.42 709.593,649.42" style="fill:rgb(170,104,48);"/>
            </g>
            <g id="Layer30">
                <path d="M628.271,545.704C629.111,583.522 630.419,616.644 631.265,651.524C680.072,646.248 729.652,649.054 773.847,657.142C773.847,657.142 773.066,555.078 772.968,554.724C768.216,537.528 635.06,530.873 628.271,545.704Z" style="fill:rgb(215,175,116);"/>
            </g>
        </g>
        <g id="Layer28" transform="matrix(0.678299,0,0,0.624399,581.537,396.645)">
            <g transform="matrix(0.787319,0,0,1.13537,50.6468,426.52)">
                <text x="930.697px" y="203.167px" style="font-family:'Noteworthy-Light', 'Noteworthy';font-weight:300;font-size:292.28px;fill:rgb(151,133,116);">F<tspan x="1075.74px 1160.5px 1294.59px 1418.8px 1504.66px 1628.15px " y="203.167px 203.167px 203.167px 203.167px 203.167px 203.167px ">ronten</tspan>d</text>
                <text x="930.697px" y="499.831px" style="font-family:'Noteworthy-Light', 'Noteworthy';font-weight:300;font-size:292.28px;fill:rgb(151,133,116);">Co<tspan x="1233.57px 1354.5px 1489.32px " y="499.831px 499.831px 499.831px ">zy </tspan>Corn<tspan x="2110.41px 2233.9px " y="499.831px 499.831px ">er</tspan></text>
            </g>
        </g>
    </g>
</svg>
