<?xml version="1.0" encoding="UTF-8" standalone="no"?>
<!DOCTYPE svg PUBLIC "-//W3C//DTD SVG 1.1//EN" "http://www.w3.org/Graphics/SVG/1.1/DTD/svg11.dtd">
<svg width="100%" height="100%" viewBox="0 0 1545 632" version="1.1" xmlns="http://www.w3.org/2000/svg" xmlns:xlink="http://www.w3.org/1999/xlink" xml:space="preserve" xmlns:serif="http://www.serif.com/" style="fill-rule:evenodd;clip-rule:evenodd;stroke-linecap:round;stroke-linejoin:round;stroke-miterlimit:1.5;">
    <g transform="matrix(1,0,0,1,-224.681,-443.243)">
        <g transform="matrix(0.76597,0,0,0.76597,-108.55,71.0177)">
            <g id="Layer16">
                <path d="M687.852,1198.18C687.852,1198.18 689.498,1287.71 694.327,1305.58C696.284,1312.82 715.099,1312.81 716.83,1305.42C721.929,1283.64 726.555,1202.85 726.555,1202.85C726.555,1202.85 691.192,1210.95 687.852,1198.18Z" style="fill:rgb(142,116,96);"/>
            </g>
            <g id="Layer17">
                <path d="M569.929,1066.76C569.929,1066.76 573.008,1113.8 576.499,1123.56C578.125,1128.11 587.609,1130.92 590.877,1125.32C594.531,1119.05 594.769,1084.06 594.769,1084.06" style="fill:rgb(118,100,88);"/>
            </g>
            <g id="Layer18">
                <path d="M1006.07,1118.45C1006.07,1118.45 1009.72,1184.89 1013.88,1198.18C1015.59,1203.63 1029.38,1203.65 1031.02,1198.18C1035.91,1181.88 1043.24,1100.35 1043.24,1100.35" style="fill:rgb(136,112,97);"/>
            </g>
            <g id="Layer3">
                <path d="M763.6,547.204C757.423,538.54 834.205,498.29 836.725,498.377C839.244,498.465 895.799,515.257 869.589,603.39C859.807,636.28 847.866,676.616 846.065,704.051C844.642,725.738 857.699,751.686 858.784,768C860.7,796.787 1030.4,752.167 1067.51,756.826C1081.25,758.551 1082.79,782.173 1081.46,795.955C1080.08,810.211 1062.86,823.478 1059.24,842.358C1055.42,862.321 1044.71,931.44 1044.71,931.44L835.662,910.673" style="fill:rgb(191,169,144);"/>
            </g>
            <g id="Layer2">
                <path d="M485.394,528.47C558.67,519.293 675.345,515.024 771.217,521.793C807.559,524.359 808.046,688.66 815.179,725.203C834.463,823.994 854.299,912.102 836.237,903.328C829.006,899.815 630.561,928.725 616.587,941.206C616.587,941.206 420.211,536.634 485.394,528.47Z" style="fill:rgb(184,162,139);"/>
            </g>
            <g id="Layer27">
                <path d="M654.927,932.443C718.566,925.831 845.843,912.608 846.521,908.711C850.25,887.256 757.301,894.165 654.927,918.626" style="fill:rgb(113,99,86);"/>
            </g>
            <g transform="matrix(1.02943,0.00680835,-0.00678555,1.02598,-10.2551,-26.4272)">
                <g id="Layer6">
                    <path d="M441.285,554.507L467.16,525.033C517.393,579.256 514.39,692.547 525.207,813.099C547.701,846.119 584.612,869.05 640.186,896.751C649.265,941.828 725.546,1161.03 704.81,1192.91C682.164,1227.73 552.198,1073.1 540.972,1035.83C516.498,954.562 475.745,732.173 441.285,554.507Z" style="fill:rgb(151,133,116);"/>
                </g>
            </g>
            <g id="Layer7">
                <path d="M656.984,1082.44C656.984,1082.44 658.385,1146.12 666.808,1184C670.058,1198.61 697.898,1216.1 716.833,1212.74C779.899,1201.54 935.801,1151.52 1045.2,1116.8C1052.34,1118.78 1072.22,995.394 1064.24,987.593C1060.35,983.791 656.984,1082.44 656.984,1082.44Z" style="fill:rgb(142,124,108);"/>
            </g>
            <g transform="matrix(0.98765,-0.0703074,0.0703074,0.98765,-48.3204,78.0535)">
                <g id="Layer12">
                    <path d="M881.434,771.116C870.144,771.284 845.251,850.982 860.884,871.208C876.518,891.433 950.864,910.079 975.234,892.471C999.603,874.862 1032.65,763.233 1007.1,765.557C988.184,767.277 906.271,770.747 881.434,771.116Z" style="fill:rgb(195,171,144);"/>
                </g>
            </g>
            <g id="Layer11">
                <path d="M861.144,515.428C867.813,517.44 890.925,554.669 862.921,629.504C854.955,656.663 848.48,687.498 846.517,702.475C844.582,707.161 842.753,659.38 860.403,614.636C872.021,585.187 858.738,514.702 861.144,515.428Z" style="fill:rgb(168,148,129);"/>
            </g>
            <g id="Layer8">
                <path d="M1024,931.44C1024,931.44 1031.69,825.646 1038.48,799.481C1041.52,787.777 1060.27,774.019 1064.75,774.455C1069.22,774.891 1080.63,791.901 1065.34,802.097C1048.11,813.582 1039.43,937.97 1038.75,931.44L1024,931.44Z" style="fill:rgb(153,135,121);"/>
            </g>
            <g id="Layer13">
                <path d="M781.992,529.401C801.487,556.772 808.905,622.968 812.083,702.794C840.26,839.634 853.047,918.769 843.341,913.567C838.7,861.735 826.761,787.586 808.12,710.859C806.679,656.104 797.162,553.776 781.992,529.401Z" style="fill:rgb(158,142,123);"/>
            </g>
            <g id="Layer10">
                <path d="M510.378,566.638C510.378,566.638 566.126,593.725 538.268,742.498C510.411,891.272 509.412,719.789 509.412,719.789L510.378,566.638Z" style="fill:rgb(151,133,116);"/>
            </g>
            <g id="Layer4">
                <path d="M659.913,999.793C663.287,992.47 668.596,995.574 695.867,988.101C705.364,985.498 630.284,959.216 651.182,939.194C659.485,931.239 680.77,923.738 705.909,917.56C713.195,915.769 720.805,914.089 728.517,912.542C768.021,904.615 810.184,900.162 825.115,902.031C898.861,911.261 1024,918.607 1024,918.607C1023,916.228 1061.21,913.558 1072.03,917.877C1075.1,919.099 1083.35,921.203 1083.96,925.97C1085.69,939.509 1104.27,988.333 1082.39,999.114C1024.51,1027.64 808.086,1087.12 736.694,1097.11C709.867,1100.87 669.373,1092.71 656.576,1076.49C643.779,1060.27 659.913,999.793 659.913,999.793Z" style="fill:rgb(182,160,137);"/>
            </g>
            <g id="Layer19">
                <path d="M687.852,951.793C704.53,959.833 737.885,975.914 741.111,986.142C744.336,996.369 712.47,1011.21 707.204,1013.16C659.445,1030.85 663.539,1006.32 655.563,998.78" style="fill:rgb(163,145,124);"/>
            </g>
            <g id="Layer15">
                <path d="M655.718,998.78C655.718,998.78 708.129,1019.03 735.245,1016.98C774.787,1013.98 892.968,980.83 892.968,980.83C892.968,980.83 992.182,956.015 1024,946.872C1044.32,941.033 1083.88,925.97 1083.88,925.97C1093.55,955.701 1100.23,994.651 1080.17,1005.33C1011.3,1042.01 746.147,1102.18 726.319,1100.3C712.07,1098.96 657.735,1099.12 647.724,1075.57C641.108,1060 639.442,1010.13 655.889,999.812C658.56,998.137 655.718,998.78 655.718,998.78Z" style="fill:rgb(151,133,116);"/>
            </g>
            <g id="Layer23">
                <path d="M651.196,1003.31C651.196,1003.31 624.592,1031.58 656.137,1085.57" style="fill:none;stroke:rgb(113,99,86);stroke-width:5.22px;"/>
            </g>
            <g id="Layer26">
                <path d="M559.109,854.839C559.109,854.839 537.011,847.909 565.404,904.498C572.361,918.364 603.504,920.151 615.789,927.063C624.513,931.971 632.593,940.006 639.116,945.97C644.805,951.173 654.927,962.851 654.927,962.851L639.117,891.203L559.109,854.839Z" style="fill:rgb(113,99,86);"/>
            </g>
            <g id="Layer5">
                <path d="M435.045,538.063C435.045,538.063 457.557,500.108 473.063,503.757C539.613,519.416 534.453,720.227 528.048,714.732C525.117,712.218 556.808,789.058 560.763,813.268C562.931,826.54 621.947,793.17 660.781,831.669C691.315,861.939 698.121,992.678 692.568,987.885L656.611,998.78L642.374,897.512C610.713,930.957 556.91,878.275 531.918,838.875C517.288,815.811 492.345,765.048 497.214,701.875C501.978,640.049 486.83,567.266 472.05,527.971C462.675,503.047 447.593,570.308 435.045,538.063Z" style="fill:rgb(191,169,144);"/>
            </g>
            <g id="Layer20">
                <path d="M655.563,998.78C654.722,1001.6 644.7,923.361 639.633,896.651C637.141,883.52 619.893,871.92 617.86,862.981C616.224,855.786 620.824,845.89 627.434,843.021C634.044,840.152 650.783,838.282 657.519,845.767C665.092,854.181 669.77,877.078 672.87,893.502C677.427,917.646 682.384,966.299 684.863,990.626" style="fill:rgb(142,124,108);"/>
            </g>
            <g id="Layer14">
                <g transform="matrix(1,0,0,1,0,-9.67299)">
                    <ellipse cx="787.866" cy="738.538" rx="5.874" ry="7.26" style="fill:rgb(158,142,123);"/>
                </g>
                <g transform="matrix(1,0,0,1,-53.3242,-2.41294)">
                    <ellipse cx="787.866" cy="738.538" rx="5.874" ry="7.26" style="fill:rgb(158,142,123);"/>
                </g>
                <g transform="matrix(1,0,0,1,-111.276,4.84712)">
                    <ellipse cx="787.866" cy="738.538" rx="5.874" ry="7.26" style="fill:rgb(158,142,123);"/>
                </g>
                <g transform="matrix(1,0,0,1,-167.543,12.1072)">
                    <ellipse cx="787.866" cy="738.538" rx="5.874" ry="7.26" style="fill:rgb(158,142,123);"/>
                </g>
                <g transform="matrix(1,0,0,1,-223.811,19.3672)">
                    <ellipse cx="787.866" cy="738.538" rx="5.874" ry="7.26" style="fill:rgb(158,142,123);"/>
                </g>
            </g>
            <g id="Layer24">
                <path d="M527.001,716.688C527.297,716.672 527.589,716.557 527.822,716.339C528.891,715.342 528.018,714.397 527.766,714.216C527.638,714.124 527.156,713.806 526.39,714.089C524.753,714.693 511.186,722.155 497.576,722.155C496.855,722.155 496.27,722.74 496.27,723.461C496.27,724.181 496.855,724.766 497.576,724.766C510.477,724.766 524.789,717.805 527.001,716.688ZM525.975,714.496L525.969,714.503L525.981,714.49L525.975,714.496Z" style="fill:rgb(113,99,86);"/>
                <path d="M563.428,814.44C562.154,814.101 560.781,814.215 559.351,814.737C557.476,815.422 555.469,816.839 553.468,818.746C546.112,825.753 538.631,839.477 537.051,844.219C536.823,844.902 537.193,845.642 537.876,845.87C538.56,846.098 539.3,845.728 539.528,845.044C541.043,840.5 548.219,827.352 555.269,820.636C556.702,819.27 558.124,818.176 559.492,817.512C560.649,816.95 561.747,816.695 562.758,816.964C563.454,817.149 564.17,816.734 564.355,816.037C564.54,815.341 564.125,814.625 563.428,814.44Z" style="fill:rgb(113,99,86);"/>
                <path d="M617.547,853.896C617.508,854.228 617.596,854.573 617.819,854.855C618.266,855.42 619.088,855.517 619.653,855.07C620.386,854.491 620.505,853.842 620.388,853.27C620.284,852.763 619.817,852.094 618.796,851.598C616.679,850.572 611.29,849.573 606.828,848.719C604.095,848.197 601.736,847.753 600.913,847.341C600.268,847.019 599.483,847.281 599.161,847.925C598.839,848.57 599.1,849.354 599.745,849.677C601.677,850.643 611.441,851.969 616.183,853.406C616.718,853.568 617.181,853.73 617.547,853.896Z" style="fill:rgb(113,99,86);"/>
                <path d="M641.428,842.216C641.006,842.657 640.939,843.349 641.302,843.867C641.715,844.458 642.529,844.602 643.12,844.189C643.264,844.088 643.486,843.881 643.696,843.516C644.026,842.94 644.551,841.578 645.007,839.744C645.767,836.683 646.368,832.26 645.667,828.143C645.175,825.257 644.047,822.525 641.965,820.444C641.456,819.934 640.629,819.934 640.119,820.444C639.61,820.953 639.61,821.78 640.119,822.29C641.814,823.985 642.692,826.231 643.093,828.582C643.729,832.32 643.164,836.335 642.473,839.114C642.099,840.619 641.511,842.023 641.428,842.216Z" style="fill:rgb(113,99,86);"/>
                <path d="M624.507,876.513C624.021,877.015 623.339,877.598 622.549,878.221C618.86,881.13 612.891,884.816 612.259,885.195C611.641,885.566 611.44,886.368 611.811,886.986C612.182,887.604 612.984,887.805 613.602,887.434C614.207,887.071 619.579,883.753 623.368,880.887C625.118,879.564 626.533,878.308 627.118,877.453C627.689,876.618 627.674,875.882 627.461,875.404C627.242,874.913 626.704,874.35 625.494,874.326C624.774,874.311 624.177,874.884 624.163,875.605C624.156,875.954 624.287,876.275 624.507,876.513Z" style="fill:rgb(113,99,86);"/>
                <path d="M844.142,702.413C843.25,703.445 841.673,705.107 840.202,705.842C832.883,709.502 825.841,708.827 817.887,708.827C817.167,708.827 816.582,709.412 816.582,710.133C816.582,710.853 817.167,711.438 817.887,711.438C826.263,711.438 833.662,712.031 841.369,708.178C844.151,706.787 846.702,703.686 847.195,702.718C847.793,701.548 846.98,700.842 846.65,700.685C846.419,700.575 846.085,700.48 845.641,700.62C845.468,700.674 845.082,700.868 844.545,701.378C844.252,701.656 844.117,702.038 844.142,702.413Z" style="fill:rgb(113,99,86);"/>
                <path d="M858.726,771.81C858.266,772.432 857.334,773.679 856.31,774.972C852.648,779.595 846.669,787.039 844.822,790.734C844.5,791.378 844.761,792.163 845.406,792.486C846.05,792.808 846.835,792.546 847.157,791.902C848.954,788.308 854.796,781.09 858.357,776.593C860.002,774.517 861.176,772.966 861.39,772.511C861.737,771.772 861.434,771.263 861.289,771.064C861.122,770.837 860.359,770.081 859.266,770.864C858.944,771.094 858.758,771.444 858.726,771.81Z" style="fill:rgb(113,99,86);"/>
                <path d="M1063.06,775.034C1062.77,774.531 1062.32,773.733 1061.91,772.962C1060.46,770.221 1058.19,766.144 1054.95,762.747C1051.57,759.201 1047.15,756.409 1041.56,756.409C1040.84,756.409 1040.26,756.994 1040.26,757.714C1040.26,758.435 1040.84,759.02 1041.56,759.02C1047.09,759.02 1051.24,762.27 1054.29,765.933C1057.52,769.797 1059.55,774.159 1060.64,776.126C1060.93,776.646 1061.18,777.029 1061.37,777.25C1061.58,777.5 1061.79,777.646 1061.95,777.728C1062.49,777.996 1062.96,777.919 1063.36,777.663C1063.6,777.511 1063.93,777.202 1064.05,776.544C1064.18,775.853 1063.74,775.187 1063.06,775.034Z" style="fill:rgb(113,99,86);"/>
                <path d="M1072.84,794.145C1073.02,794.15 1073.21,794.16 1073.39,794.176C1076.37,794.438 1081.27,795.418 1083.16,795.418C1083.88,795.418 1084.47,794.833 1084.47,794.113C1084.47,793.392 1083.88,792.807 1083.16,792.807C1081.45,792.807 1077.18,791.958 1074.26,791.638C1072.72,791.47 1071.48,791.491 1070.93,791.689C1070.19,791.952 1069.89,792.457 1069.82,792.959C1069.76,793.359 1069.85,794.078 1070.74,794.822C1071.29,795.283 1072.12,795.208 1072.58,794.655C1072.71,794.501 1072.79,794.327 1072.84,794.145Z" style="fill:rgb(113,99,86);"/>
                <path d="M1063.3,809.227C1063.45,811.201 1063.73,814.317 1064.21,816.269C1064.39,816.968 1065.1,817.393 1065.8,817.219C1066.5,817.044 1066.92,816.334 1066.75,815.635C1066.11,813.091 1065.87,808.465 1065.79,807.409C1065.73,806.686 1065.37,806.359 1065.34,806.328C1065.1,806.106 1064.84,806.02 1064.6,805.994C1064.29,805.96 1063.98,806.021 1063.68,806.243C1063.57,806.325 1063.27,806.534 1063.17,807.064C1063.16,807.136 1063.14,807.604 1063.14,808.603C1063.14,808.829 1063.2,809.042 1063.3,809.227Z" style="fill:rgb(113,99,86);"/>
            </g>
            <g id="Layer25">
                <path d="M734.538,730.46C733.193,728.185 732.716,725.094 731.6,722.491" style="fill:none;stroke:rgb(151,142,134);stroke-width:0.52px;"/>
                <path d="M734.538,744.129C735.521,744.789 734.72,748.971 734.434,750.83" style="fill:none;stroke:rgb(151,142,134);stroke-width:0.52px;"/>
                <path d="M786.05,722.498C786.477,723.454 783.787,714.81 783.082,713.281" style="fill:none;stroke:rgb(151,142,134);stroke-width:0.52px;"/>
                <path d="M787.9,735.784C788.703,731.377 788.054,740.253 788.041,740.439" style="fill:none;stroke:rgb(151,142,134);stroke-width:0.52px;"/>
                <path d="M674.983,736.518C677.258,738.352 673.787,729.424 673.506,728.395" style="fill:none;stroke:rgb(151,142,134);stroke-width:0.52px;"/>
                <path d="M676.484,750.996C678.481,751.423 677.705,754.837 677.521,756.497" style="fill:none;stroke:rgb(151,142,134);stroke-width:0.52px;"/>
                <path d="M617.661,745.45C618.462,742.433 617.473,739.534 615.789,737.008" style="fill:none;stroke:rgb(151,142,134);stroke-width:0.52px;"/>
                <path d="M620.177,759.435C622.137,759.021 621.973,759.659 621.973,761.741" style="fill:none;stroke:rgb(151,142,134);stroke-width:0.52px;"/>
                <path d="M561.165,753.271C561.239,749.039 560.702,746.658 559.109,742.676" style="fill:none;stroke:rgb(151,142,134);stroke-width:0.52px;"/>
                <path d="M564.184,765.992C568.099,765.539 566.23,771.061 565.808,773.592" style="fill:none;stroke:rgb(151,142,134);stroke-width:0.52px;"/>
            </g>
        </g>
        <g id="Layer28" transform="matrix(1,0,0,1,18.4897,-11.5296)">
            <g transform="matrix(0.688164,0,0,0.99238,150.826,502.599)">
                <g transform="matrix(292.28,0,0,292.28,930.697,203.167)">
                    <path d="M0.521,-0.794C0.512,-0.785 0.502,-0.78 0.49,-0.78C0.485,-0.78 0.478,-0.781 0.468,-0.782C0.458,-0.783 0.45,-0.784 0.444,-0.784C0.409,-0.784 0.362,-0.777 0.304,-0.763C0.235,-0.745 0.188,-0.735 0.164,-0.733L0.138,-0.498C0.136,-0.481 0.135,-0.467 0.135,-0.455C0.135,-0.437 0.141,-0.428 0.154,-0.428C0.157,-0.428 0.161,-0.428 0.165,-0.429C0.245,-0.449 0.303,-0.459 0.339,-0.459C0.39,-0.459 0.408,-0.46 0.391,-0.461C0.408,-0.46 0.421,-0.451 0.431,-0.436L0.435,-0.405C0.433,-0.399 0.428,-0.396 0.423,-0.396C0.417,-0.396 0.409,-0.395 0.399,-0.394C0.39,-0.392 0.383,-0.391 0.378,-0.391C0.306,-0.391 0.225,-0.378 0.135,-0.35C0.129,-0.323 0.126,-0.261 0.126,-0.166C0.126,-0.088 0.129,-0.044 0.135,-0.035C0.138,-0.03 0.142,-0.025 0.147,-0.02C0.151,-0.015 0.154,-0.011 0.154,-0.008C0.154,-0.002 0.149,0.005 0.14,0.012C0.131,0.019 0.124,0.023 0.119,0.023C0.118,0.023 0.105,0.016 0.081,0.003C0.064,-0.043 0.055,-0.104 0.055,-0.179C0.055,-0.238 0.06,-0.326 0.069,-0.442C0.079,-0.558 0.084,-0.646 0.084,-0.705C0.084,-0.717 0.078,-0.725 0.066,-0.726C0.048,-0.73 0.037,-0.733 0.034,-0.735C0.021,-0.743 0.015,-0.751 0.015,-0.758C0.015,-0.766 0.019,-0.774 0.026,-0.783C0.03,-0.784 0.04,-0.785 0.058,-0.786C0.072,-0.787 0.081,-0.79 0.086,-0.796C0.088,-0.803 0.089,-0.809 0.089,-0.815C0.089,-0.828 0.097,-0.839 0.114,-0.849C0.127,-0.856 0.138,-0.86 0.148,-0.86C0.156,-0.86 0.16,-0.855 0.161,-0.844L0.161,-0.818C0.163,-0.812 0.166,-0.808 0.17,-0.805C0.209,-0.813 0.249,-0.822 0.289,-0.83C0.336,-0.839 0.376,-0.844 0.409,-0.844C0.456,-0.844 0.494,-0.827 0.521,-0.794Z" style="fill-rule:nonzero;"/>
                </g>
                <g transform="matrix(292.28,0,0,292.28,1075.74,203.167)">
                    <path d="M0.309,-0.445C0.309,-0.442 0.308,-0.435 0.308,-0.424C0.297,-0.407 0.286,-0.399 0.276,-0.399C0.27,-0.399 0.264,-0.403 0.259,-0.411C0.256,-0.464 0.235,-0.49 0.194,-0.49C0.167,-0.49 0.141,-0.441 0.115,-0.343C0.105,-0.307 0.1,-0.259 0.1,-0.199C0.1,-0.122 0.102,-0.075 0.106,-0.058C0.107,-0.055 0.109,-0.05 0.113,-0.042C0.116,-0.034 0.118,-0.028 0.118,-0.024C0.118,-0.005 0.105,0.004 0.08,0.004C0.052,0.004 0.038,-0.011 0.038,-0.04C0.038,-0.044 0.039,-0.05 0.041,-0.058C0.043,-0.066 0.044,-0.072 0.044,-0.076C0.044,-0.122 0.042,-0.191 0.038,-0.283C0.033,-0.374 0.031,-0.443 0.031,-0.489C0.031,-0.505 0.034,-0.516 0.04,-0.519C0.046,-0.523 0.057,-0.525 0.074,-0.525C0.095,-0.525 0.107,-0.518 0.11,-0.503C0.111,-0.486 0.112,-0.47 0.113,-0.454C0.134,-0.487 0.147,-0.506 0.15,-0.51C0.168,-0.531 0.188,-0.541 0.208,-0.541C0.223,-0.541 0.238,-0.537 0.253,-0.528C0.261,-0.523 0.272,-0.51 0.287,-0.489C0.301,-0.468 0.309,-0.453 0.309,-0.445Z" style="fill-rule:nonzero;"/>
                </g>
                <g transform="matrix(292.28,0,0,292.28,1160.5,203.167)">
                    <path d="M0.428,-0.246C0.428,-0.175 0.412,-0.112 0.38,-0.059C0.342,0.005 0.29,0.038 0.224,0.038C0.156,0.038 0.106,0.011 0.073,-0.041C0.045,-0.085 0.031,-0.142 0.031,-0.214C0.031,-0.285 0.047,-0.354 0.079,-0.423C0.119,-0.507 0.17,-0.549 0.231,-0.549C0.247,-0.549 0.27,-0.54 0.299,-0.521C0.385,-0.468 0.428,-0.376 0.428,-0.246ZM0.368,-0.248C0.368,-0.301 0.36,-0.349 0.346,-0.391C0.325,-0.45 0.293,-0.48 0.25,-0.48C0.2,-0.48 0.161,-0.447 0.133,-0.381C0.111,-0.33 0.1,-0.276 0.1,-0.218C0.1,-0.165 0.108,-0.121 0.123,-0.085C0.144,-0.036 0.178,-0.011 0.224,-0.011C0.274,-0.011 0.312,-0.04 0.338,-0.096C0.358,-0.14 0.368,-0.191 0.368,-0.248Z" style="fill-rule:nonzero;"/>
                </g>
                <g transform="matrix(292.28,0,0,292.28,1294.59,203.167)">
                    <path d="M0.428,0.006C0.423,0.015 0.415,0.02 0.406,0.02C0.397,0.02 0.382,0.014 0.361,0.003L0.361,-0.008C0.361,-0.015 0.362,-0.026 0.363,-0.041C0.363,-0.056 0.364,-0.067 0.364,-0.074C0.364,-0.35 0.329,-0.489 0.26,-0.489C0.238,-0.489 0.215,-0.473 0.19,-0.441C0.127,-0.363 0.095,-0.264 0.095,-0.145C0.095,-0.129 0.098,-0.106 0.103,-0.076C0.109,-0.045 0.111,-0.022 0.111,-0.006C0.111,0.006 0.102,0.013 0.085,0.013C0.052,0.013 0.035,-0.014 0.035,-0.066L0.035,-0.35C0.035,-0.358 0.036,-0.368 0.038,-0.383C0.039,-0.397 0.04,-0.408 0.04,-0.415C0.04,-0.426 0.039,-0.442 0.036,-0.463C0.033,-0.483 0.031,-0.499 0.031,-0.509C0.031,-0.515 0.036,-0.523 0.047,-0.532C0.057,-0.541 0.065,-0.545 0.071,-0.545C0.082,-0.545 0.092,-0.539 0.101,-0.528C0.099,-0.473 0.097,-0.442 0.098,-0.433C0.097,-0.42 0.098,-0.408 0.099,-0.396C0.106,-0.399 0.116,-0.413 0.129,-0.438C0.145,-0.469 0.158,-0.491 0.169,-0.503C0.189,-0.526 0.212,-0.538 0.238,-0.538C0.248,-0.538 0.263,-0.534 0.283,-0.526C0.328,-0.51 0.36,-0.482 0.379,-0.444C0.411,-0.378 0.428,-0.291 0.428,-0.183L0.428,0.006Z" style="fill-rule:nonzero;"/>
                </g>
                <g transform="matrix(292.28,0,0,292.28,1418.8,203.167)">
                    <path d="M0.293,-0.394C0.286,-0.389 0.27,-0.385 0.245,-0.381C0.218,-0.378 0.202,-0.375 0.198,-0.373C0.197,-0.363 0.196,-0.317 0.196,-0.234C0.196,-0.169 0.197,-0.125 0.199,-0.103C0.199,-0.093 0.201,-0.079 0.205,-0.059C0.209,-0.039 0.211,-0.023 0.211,-0.013C0.211,-0.006 0.207,0.001 0.199,0.008C0.19,0.014 0.183,0.018 0.176,0.018C0.16,0.018 0.146,0 0.136,-0.034C0.13,-0.059 0.126,-0.083 0.126,-0.105C0.126,-0.223 0.127,-0.309 0.129,-0.365C0.124,-0.369 0.105,-0.369 0.071,-0.365C0.045,-0.362 0.031,-0.371 0.031,-0.394C0.031,-0.425 0.065,-0.44 0.133,-0.438L0.149,-0.664C0.149,-0.666 0.148,-0.67 0.146,-0.676C0.144,-0.681 0.143,-0.685 0.143,-0.688C0.143,-0.693 0.146,-0.697 0.153,-0.702C0.159,-0.706 0.167,-0.708 0.176,-0.708C0.205,-0.705 0.22,-0.69 0.22,-0.664C0.22,-0.643 0.217,-0.612 0.211,-0.57C0.205,-0.528 0.203,-0.498 0.203,-0.478C0.203,-0.468 0.203,-0.458 0.205,-0.449L0.274,-0.453C0.297,-0.452 0.309,-0.443 0.309,-0.425C0.309,-0.412 0.303,-0.401 0.293,-0.394Z" style="fill-rule:nonzero;"/>
                </g>
                <g transform="matrix(292.28,0,0,292.28,1504.66,203.167)">
                    <path d="M0.398,-0.124C0.398,-0.087 0.373,-0.054 0.324,-0.025C0.28,0.002 0.238,0.015 0.199,0.015C0.087,0.015 0.031,-0.056 0.031,-0.198C0.031,-0.26 0.043,-0.327 0.065,-0.399C0.095,-0.492 0.133,-0.539 0.18,-0.539C0.22,-0.539 0.264,-0.519 0.311,-0.478C0.359,-0.438 0.383,-0.397 0.383,-0.358C0.383,-0.306 0.362,-0.261 0.32,-0.223C0.278,-0.184 0.231,-0.165 0.179,-0.165C0.174,-0.165 0.163,-0.169 0.147,-0.178C0.131,-0.186 0.12,-0.19 0.114,-0.19C0.103,-0.19 0.097,-0.187 0.098,-0.18C0.097,-0.084 0.129,-0.036 0.193,-0.036C0.225,-0.036 0.255,-0.047 0.283,-0.069C0.299,-0.081 0.318,-0.101 0.338,-0.128C0.353,-0.148 0.364,-0.159 0.369,-0.159C0.388,-0.159 0.398,-0.147 0.398,-0.124ZM0.311,-0.354C0.311,-0.383 0.303,-0.41 0.286,-0.436C0.27,-0.461 0.247,-0.474 0.22,-0.474C0.187,-0.474 0.16,-0.453 0.139,-0.411C0.121,-0.376 0.113,-0.34 0.113,-0.303C0.113,-0.278 0.12,-0.258 0.136,-0.242C0.151,-0.226 0.171,-0.218 0.195,-0.218C0.229,-0.218 0.258,-0.232 0.28,-0.261C0.301,-0.288 0.311,-0.319 0.311,-0.354Z" style="fill-rule:nonzero;"/>
                </g>
                <g transform="matrix(292.28,0,0,292.28,1628.15,203.167)">
                    <path d="M0.428,0.006C0.423,0.015 0.415,0.02 0.406,0.02C0.397,0.02 0.382,0.014 0.361,0.003L0.361,-0.008C0.361,-0.015 0.362,-0.026 0.363,-0.041C0.363,-0.056 0.364,-0.067 0.364,-0.074C0.364,-0.35 0.329,-0.489 0.26,-0.489C0.238,-0.489 0.215,-0.473 0.19,-0.441C0.127,-0.363 0.095,-0.264 0.095,-0.145C0.095,-0.129 0.098,-0.106 0.103,-0.076C0.109,-0.045 0.111,-0.022 0.111,-0.006C0.111,0.006 0.102,0.013 0.085,0.013C0.052,0.013 0.035,-0.014 0.035,-0.066L0.035,-0.35C0.035,-0.358 0.036,-0.368 0.038,-0.383C0.039,-0.397 0.04,-0.408 0.04,-0.415C0.04,-0.426 0.039,-0.442 0.036,-0.463C0.033,-0.483 0.031,-0.499 0.031,-0.509C0.031,-0.515 0.036,-0.523 0.047,-0.532C0.057,-0.541 0.065,-0.545 0.071,-0.545C0.082,-0.545 0.092,-0.539 0.101,-0.528C0.099,-0.473 0.097,-0.442 0.098,-0.433C0.097,-0.42 0.098,-0.408 0.099,-0.396C0.106,-0.399 0.116,-0.413 0.129,-0.438C0.145,-0.469 0.158,-0.491 0.169,-0.503C0.189,-0.526 0.212,-0.538 0.238,-0.538C0.248,-0.538 0.263,-0.534 0.283,-0.526C0.328,-0.51 0.36,-0.482 0.379,-0.444C0.411,-0.378 0.428,-0.291 0.428,-0.183L0.428,0.006Z" style="fill-rule:nonzero;"/>
                </g>
                <g transform="matrix(292.28,0,0,292.28,1762.23,203.167)">
                    <path d="M0.428,-0.794C0.428,-0.775 0.425,-0.75 0.42,-0.72C0.414,-0.681 0.41,-0.656 0.409,-0.646C0.406,-0.62 0.402,-0.535 0.396,-0.389C0.391,-0.255 0.389,-0.182 0.389,-0.168C0.389,-0.078 0.397,-0.015 0.413,0.021C0.407,0.03 0.399,0.035 0.39,0.035C0.382,0.035 0.372,0.031 0.362,0.023C0.351,0.014 0.345,0.006 0.343,-0.003C0.343,-0.019 0.34,-0.045 0.335,-0.079C0.286,-0.016 0.239,0.015 0.194,0.015C0.14,0.015 0.098,-0.005 0.069,-0.046C0.044,-0.081 0.031,-0.128 0.031,-0.185C0.031,-0.255 0.044,-0.327 0.07,-0.403C0.103,-0.501 0.148,-0.55 0.203,-0.55C0.226,-0.55 0.25,-0.541 0.274,-0.524C0.279,-0.52 0.298,-0.503 0.333,-0.471C0.341,-0.528 0.345,-0.652 0.345,-0.844C0.351,-0.85 0.359,-0.853 0.369,-0.853C0.385,-0.853 0.398,-0.847 0.41,-0.835C0.422,-0.823 0.428,-0.81 0.428,-0.794ZM0.334,-0.333C0.334,-0.369 0.325,-0.402 0.309,-0.431C0.289,-0.466 0.262,-0.484 0.228,-0.484C0.186,-0.484 0.153,-0.441 0.128,-0.356C0.108,-0.292 0.097,-0.232 0.098,-0.175C0.097,-0.138 0.103,-0.107 0.115,-0.08C0.131,-0.045 0.155,-0.028 0.186,-0.028C0.238,-0.028 0.277,-0.067 0.304,-0.148C0.324,-0.205 0.334,-0.267 0.334,-0.333Z" style="fill-rule:nonzero;"/>
                </g>
                <g transform="matrix(292.28,0,0,292.28,930.697,499.831)">
                    <path d="M0.585,-0.193C0.585,-0.179 0.581,-0.162 0.574,-0.14C0.556,-0.089 0.521,-0.048 0.468,-0.018C0.418,0.011 0.365,0.025 0.308,0.025C0.21,0.025 0.137,-0.015 0.088,-0.095C0.046,-0.161 0.025,-0.245 0.025,-0.349C0.025,-0.437 0.038,-0.52 0.064,-0.599C0.093,-0.69 0.136,-0.761 0.194,-0.811C0.236,-0.849 0.279,-0.868 0.323,-0.868C0.387,-0.868 0.435,-0.837 0.466,-0.775C0.491,-0.727 0.504,-0.667 0.504,-0.596C0.504,-0.561 0.498,-0.521 0.488,-0.475C0.473,-0.415 0.455,-0.385 0.433,-0.385C0.415,-0.385 0.403,-0.394 0.395,-0.413C0.4,-0.416 0.408,-0.422 0.419,-0.43C0.44,-0.451 0.451,-0.502 0.451,-0.583C0.451,-0.632 0.442,-0.679 0.424,-0.724C0.4,-0.782 0.368,-0.811 0.328,-0.811C0.295,-0.811 0.261,-0.792 0.225,-0.753C0.198,-0.723 0.175,-0.69 0.156,-0.651C0.114,-0.563 0.092,-0.454 0.093,-0.325C0.092,-0.239 0.108,-0.171 0.138,-0.12C0.175,-0.057 0.233,-0.025 0.313,-0.025C0.356,-0.025 0.395,-0.036 0.431,-0.059C0.467,-0.082 0.495,-0.113 0.514,-0.151C0.517,-0.164 0.524,-0.181 0.535,-0.204C0.542,-0.215 0.55,-0.22 0.56,-0.22C0.577,-0.22 0.585,-0.211 0.585,-0.193Z" style="fill-rule:nonzero;"/>
                </g>
                <g transform="matrix(292.28,0,0,292.28,1105.33,499.831)">
                    <path d="M0.428,-0.246C0.428,-0.175 0.412,-0.112 0.38,-0.059C0.342,0.005 0.29,0.038 0.224,0.038C0.156,0.038 0.106,0.011 0.073,-0.041C0.045,-0.085 0.031,-0.142 0.031,-0.214C0.031,-0.285 0.047,-0.354 0.079,-0.423C0.119,-0.507 0.17,-0.549 0.231,-0.549C0.247,-0.549 0.27,-0.54 0.299,-0.521C0.385,-0.468 0.428,-0.376 0.428,-0.246ZM0.368,-0.248C0.368,-0.301 0.36,-0.349 0.346,-0.391C0.325,-0.45 0.293,-0.48 0.25,-0.48C0.2,-0.48 0.161,-0.447 0.133,-0.381C0.111,-0.33 0.1,-0.276 0.1,-0.218C0.1,-0.165 0.108,-0.121 0.123,-0.085C0.144,-0.036 0.178,-0.011 0.224,-0.011C0.274,-0.011 0.312,-0.04 0.338,-0.096C0.358,-0.14 0.368,-0.191 0.368,-0.248Z" style="fill-rule:nonzero;"/>
                </g>
                <g transform="matrix(292.28,0,0,292.28,1233.57,499.831)">
                    <path d="M0.403,-0.483C0.403,-0.462 0.393,-0.44 0.373,-0.416C0.32,-0.358 0.268,-0.3 0.215,-0.241C0.139,-0.151 0.1,-0.09 0.099,-0.058C0.106,-0.048 0.12,-0.044 0.141,-0.044C0.188,-0.044 0.263,-0.055 0.365,-0.079C0.37,-0.08 0.376,-0.075 0.383,-0.064C0.39,-0.054 0.394,-0.044 0.394,-0.034C0.394,-0.011 0.378,-0 0.345,-0C0.316,-0 0.277,0.003 0.228,0.008C0.178,0.014 0.141,0.016 0.116,0.016C0.095,0.016 0.076,0.011 0.06,0.001C0.041,-0.01 0.031,-0.027 0.031,-0.048C0.031,-0.079 0.055,-0.127 0.103,-0.19C0.119,-0.212 0.164,-0.265 0.238,-0.351C0.287,-0.41 0.313,-0.447 0.316,-0.464C0.308,-0.47 0.295,-0.474 0.276,-0.474C0.243,-0.474 0.211,-0.467 0.18,-0.453C0.159,-0.443 0.138,-0.43 0.116,-0.413C0.098,-0.398 0.088,-0.391 0.086,-0.391C0.065,-0.391 0.055,-0.405 0.055,-0.433C0.055,-0.46 0.094,-0.484 0.173,-0.505C0.236,-0.522 0.288,-0.53 0.328,-0.53C0.378,-0.53 0.403,-0.514 0.403,-0.483Z" style="fill-rule:nonzero;"/>
                </g>
                <g transform="matrix(292.28,0,0,292.28,1354.5,499.831)">
                    <path d="M0.431,-0.49C0.425,-0.453 0.418,-0.417 0.413,-0.38C0.405,-0.341 0.401,-0.304 0.401,-0.27L0.4,0.121C0.4,0.177 0.383,0.221 0.349,0.254C0.316,0.287 0.27,0.304 0.214,0.304C0.183,0.304 0.148,0.295 0.11,0.279C0.066,0.26 0.035,0.238 0.019,0.21C0.015,0.203 0.013,0.195 0.013,0.188C0.013,0.163 0.024,0.151 0.048,0.151C0.053,0.151 0.058,0.153 0.064,0.156C0.078,0.171 0.092,0.186 0.106,0.2C0.135,0.226 0.17,0.239 0.214,0.239C0.269,0.239 0.305,0.22 0.324,0.181C0.335,0.157 0.34,0.113 0.34,0.05C0.34,0.042 0.338,0.025 0.335,-0C0.332,-0.021 0.331,-0.039 0.333,-0.055C0.309,-0.033 0.293,-0.02 0.283,-0.014C0.264,-0.002 0.244,0.004 0.223,0.004C0.166,0.004 0.123,-0.018 0.094,-0.063C0.068,-0.101 0.055,-0.15 0.055,-0.209C0.055,-0.321 0.057,-0.416 0.06,-0.494C0.063,-0.52 0.078,-0.534 0.104,-0.534C0.135,-0.534 0.15,-0.528 0.146,-0.518C0.13,-0.474 0.123,-0.377 0.123,-0.226C0.123,-0.11 0.156,-0.051 0.223,-0.051C0.263,-0.051 0.296,-0.083 0.32,-0.145C0.338,-0.193 0.347,-0.242 0.346,-0.291L0.345,-0.434C0.346,-0.448 0.347,-0.466 0.348,-0.488C0.349,-0.509 0.363,-0.519 0.389,-0.518C0.419,-0.515 0.433,-0.506 0.431,-0.49Z" style="fill-rule:nonzero;"/>
                </g>
                <g transform="matrix(292.28,0,0,292.28,1566.41,499.831)">
                    <path d="M0.585,-0.193C0.585,-0.179 0.581,-0.162 0.574,-0.14C0.556,-0.089 0.521,-0.048 0.468,-0.018C0.418,0.011 0.365,0.025 0.308,0.025C0.21,0.025 0.137,-0.015 0.088,-0.095C0.046,-0.161 0.025,-0.245 0.025,-0.349C0.025,-0.437 0.038,-0.52 0.064,-0.599C0.093,-0.69 0.136,-0.761 0.194,-0.811C0.236,-0.849 0.279,-0.868 0.323,-0.868C0.387,-0.868 0.435,-0.837 0.466,-0.775C0.491,-0.727 0.504,-0.667 0.504,-0.596C0.504,-0.561 0.498,-0.521 0.488,-0.475C0.473,-0.415 0.455,-0.385 0.433,-0.385C0.415,-0.385 0.403,-0.394 0.395,-0.413C0.4,-0.416 0.408,-0.422 0.419,-0.43C0.44,-0.451 0.451,-0.502 0.451,-0.583C0.451,-0.632 0.442,-0.679 0.424,-0.724C0.4,-0.782 0.368,-0.811 0.328,-0.811C0.295,-0.811 0.261,-0.792 0.225,-0.753C0.198,-0.723 0.175,-0.69 0.156,-0.651C0.114,-0.563 0.092,-0.454 0.093,-0.325C0.092,-0.239 0.108,-0.171 0.138,-0.12C0.175,-0.057 0.233,-0.025 0.313,-0.025C0.356,-0.025 0.395,-0.036 0.431,-0.059C0.467,-0.082 0.495,-0.113 0.514,-0.151C0.517,-0.164 0.524,-0.181 0.535,-0.204C0.542,-0.215 0.55,-0.22 0.56,-0.22C0.577,-0.22 0.585,-0.211 0.585,-0.193Z" style="fill-rule:nonzero;"/>
                </g>
                <g transform="matrix(292.28,0,0,292.28,1741.04,499.831)">
                    <path d="M0.428,-0.246C0.428,-0.175 0.412,-0.112 0.38,-0.059C0.342,0.005 0.29,0.038 0.224,0.038C0.156,0.038 0.106,0.011 0.073,-0.041C0.045,-0.085 0.031,-0.142 0.031,-0.214C0.031,-0.285 0.047,-0.354 0.079,-0.423C0.119,-0.507 0.17,-0.549 0.231,-0.549C0.247,-0.549 0.27,-0.54 0.299,-0.521C0.385,-0.468 0.428,-0.376 0.428,-0.246ZM0.368,-0.248C0.368,-0.301 0.36,-0.349 0.346,-0.391C0.325,-0.45 0.293,-0.48 0.25,-0.48C0.2,-0.48 0.161,-0.447 0.133,-0.381C0.111,-0.33 0.1,-0.276 0.1,-0.218C0.1,-0.165 0.108,-0.121 0.123,-0.085C0.144,-0.036 0.178,-0.011 0.224,-0.011C0.274,-0.011 0.312,-0.04 0.338,-0.096C0.358,-0.14 0.368,-0.191 0.368,-0.248Z" style="fill-rule:nonzero;"/>
                </g>
                <g transform="matrix(292.28,0,0,292.28,1875.13,499.831)">
                    <path d="M0.309,-0.445C0.309,-0.442 0.308,-0.435 0.308,-0.424C0.297,-0.407 0.286,-0.399 0.276,-0.399C0.27,-0.399 0.264,-0.403 0.259,-0.411C0.256,-0.464 0.235,-0.49 0.194,-0.49C0.167,-0.49 0.141,-0.441 0.115,-0.343C0.105,-0.307 0.1,-0.259 0.1,-0.199C0.1,-0.122 0.102,-0.075 0.106,-0.058C0.107,-0.055 0.109,-0.05 0.113,-0.042C0.116,-0.034 0.118,-0.028 0.118,-0.024C0.118,-0.005 0.105,0.004 0.08,0.004C0.052,0.004 0.038,-0.011 0.038,-0.04C0.038,-0.044 0.039,-0.05 0.041,-0.058C0.043,-0.066 0.044,-0.072 0.044,-0.076C0.044,-0.122 0.042,-0.191 0.038,-0.283C0.033,-0.374 0.031,-0.443 0.031,-0.489C0.031,-0.505 0.034,-0.516 0.04,-0.519C0.046,-0.523 0.057,-0.525 0.074,-0.525C0.095,-0.525 0.107,-0.518 0.11,-0.503C0.111,-0.486 0.112,-0.47 0.113,-0.454C0.134,-0.487 0.147,-0.506 0.15,-0.51C0.168,-0.531 0.188,-0.541 0.208,-0.541C0.223,-0.541 0.238,-0.537 0.253,-0.528C0.261,-0.523 0.272,-0.51 0.287,-0.489C0.301,-0.468 0.309,-0.453 0.309,-0.445Z" style="fill-rule:nonzero;"/>
                </g>
                <g transform="matrix(292.28,0,0,292.28,1974.5,499.831)">
                    <path d="M0.428,0.006C0.423,0.015 0.415,0.02 0.406,0.02C0.397,0.02 0.382,0.014 0.361,0.003L0.361,-0.008C0.361,-0.015 0.362,-0.026 0.363,-0.041C0.363,-0.056 0.364,-0.067 0.364,-0.074C0.364,-0.35 0.329,-0.489 0.26,-0.489C0.238,-0.489 0.215,-0.473 0.19,-0.441C0.127,-0.363 0.095,-0.264 0.095,-0.145C0.095,-0.129 0.098,-0.106 0.103,-0.076C0.109,-0.045 0.111,-0.022 0.111,-0.006C0.111,0.006 0.102,0.013 0.085,0.013C0.052,0.013 0.035,-0.014 0.035,-0.066L0.035,-0.35C0.035,-0.358 0.036,-0.368 0.038,-0.383C0.039,-0.397 0.04,-0.408 0.04,-0.415C0.04,-0.426 0.039,-0.442 0.036,-0.463C0.033,-0.483 0.031,-0.499 0.031,-0.509C0.031,-0.515 0.036,-0.523 0.047,-0.532C0.057,-0.541 0.065,-0.545 0.071,-0.545C0.082,-0.545 0.092,-0.539 0.101,-0.528C0.099,-0.473 0.097,-0.442 0.098,-0.433C0.097,-0.42 0.098,-0.408 0.099,-0.396C0.106,-0.399 0.116,-0.413 0.129,-0.438C0.145,-0.469 0.158,-0.491 0.169,-0.503C0.189,-0.526 0.212,-0.538 0.238,-0.538C0.248,-0.538 0.263,-0.534 0.283,-0.526C0.328,-0.51 0.36,-0.482 0.379,-0.444C0.411,-0.378 0.428,-0.291 0.428,-0.183L0.428,0.006Z" style="fill-rule:nonzero;"/>
                </g>
                <g transform="matrix(292.28,0,0,292.28,2110.41,499.831)">
                    <path d="M0.398,-0.124C0.398,-0.087 0.373,-0.054 0.324,-0.025C0.28,0.002 0.238,0.015 0.199,0.015C0.087,0.015 0.031,-0.056 0.031,-0.198C0.031,-0.26 0.043,-0.327 0.065,-0.399C0.095,-0.492 0.133,-0.539 0.18,-0.539C0.22,-0.539 0.264,-0.519 0.311,-0.478C0.359,-0.438 0.383,-0.397 0.383,-0.358C0.383,-0.306 0.362,-0.261 0.32,-0.223C0.278,-0.184 0.231,-0.165 0.179,-0.165C0.174,-0.165 0.163,-0.169 0.147,-0.178C0.131,-0.186 0.12,-0.19 0.114,-0.19C0.103,-0.19 0.097,-0.187 0.098,-0.18C0.097,-0.084 0.129,-0.036 0.193,-0.036C0.225,-0.036 0.255,-0.047 0.283,-0.069C0.299,-0.081 0.318,-0.101 0.338,-0.128C0.353,-0.148 0.364,-0.159 0.369,-0.159C0.388,-0.159 0.398,-0.147 0.398,-0.124ZM0.311,-0.354C0.311,-0.383 0.303,-0.41 0.286,-0.436C0.27,-0.461 0.247,-0.474 0.22,-0.474C0.187,-0.474 0.16,-0.453 0.139,-0.411C0.121,-0.376 0.113,-0.34 0.113,-0.303C0.113,-0.278 0.12,-0.258 0.136,-0.242C0.151,-0.226 0.171,-0.218 0.195,-0.218C0.229,-0.218 0.258,-0.232 0.28,-0.261C0.301,-0.288 0.311,-0.319 0.311,-0.354Z" style="fill-rule:nonzero;"/>
                </g>
                <g transform="matrix(292.28,0,0,292.28,2233.9,499.831)">
                    <path d="M0.309,-0.445C0.309,-0.442 0.308,-0.435 0.308,-0.424C0.297,-0.407 0.286,-0.399 0.276,-0.399C0.27,-0.399 0.264,-0.403 0.259,-0.411C0.256,-0.464 0.235,-0.49 0.194,-0.49C0.167,-0.49 0.141,-0.441 0.115,-0.343C0.105,-0.307 0.1,-0.259 0.1,-0.199C0.1,-0.122 0.102,-0.075 0.106,-0.058C0.107,-0.055 0.109,-0.05 0.113,-0.042C0.116,-0.034 0.118,-0.028 0.118,-0.024C0.118,-0.005 0.105,0.004 0.08,0.004C0.052,0.004 0.038,-0.011 0.038,-0.04C0.038,-0.044 0.039,-0.05 0.041,-0.058C0.043,-0.066 0.044,-0.072 0.044,-0.076C0.044,-0.122 0.042,-0.191 0.038,-0.283C0.033,-0.374 0.031,-0.443 0.031,-0.489C0.031,-0.505 0.034,-0.516 0.04,-0.519C0.046,-0.523 0.057,-0.525 0.074,-0.525C0.095,-0.525 0.107,-0.518 0.11,-0.503C0.111,-0.486 0.112,-0.47 0.113,-0.454C0.134,-0.487 0.147,-0.506 0.15,-0.51C0.168,-0.531 0.188,-0.541 0.208,-0.541C0.223,-0.541 0.238,-0.537 0.253,-0.528C0.261,-0.523 0.272,-0.51 0.287,-0.489C0.301,-0.468 0.309,-0.453 0.309,-0.445Z" style="fill-rule:nonzero;"/>
                </g>
            </g>
        </g>
    </g>
</svg>
